<?xml version="1.0" encoding="utf-8" standalone="no"?>
<!DOCTYPE svg PUBLIC "-//W3C//DTD SVG 1.1//EN"
  "http://www.w3.org/Graphics/SVG/1.1/DTD/svg11.dtd">
<svg xmlns:xlink="http://www.w3.org/1999/xlink" width="1409.4pt" height="846pt" viewBox="0 0 1409.4 846" xmlns="http://www.w3.org/2000/svg" version="1.1">
 <metadata>
  <rdf:RDF xmlns:dc="http://purl.org/dc/elements/1.1/" xmlns:cc="http://creativecommons.org/ns#" xmlns:rdf="http://www.w3.org/1999/02/22-rdf-syntax-ns#">
   <cc:Work>
    <dc:type rdf:resource="http://purl.org/dc/dcmitype/StillImage"/>
    <dc:date>2026-01-08T19:08:14.196842</dc:date>
    <dc:format>image/svg+xml</dc:format>
    <dc:creator>
     <cc:Agent>
      <dc:title>Matplotlib v3.10.8, https://matplotlib.org/</dc:title>
     </cc:Agent>
    </dc:creator>
   </cc:Work>
  </rdf:RDF>
 </metadata>
 <defs>
  <style type="text/css">*{stroke-linejoin: round; stroke-linecap: butt}</style>
 </defs>
 <g id="figure_1">
  <g id="patch_1">
   <path d="M 0 846 
L 1409.4 846 
L 1409.4 0 
L 0 0 
z
" style="fill: #ffffff"/>
  </g>
  <g id="axes_1">
   <g id="patch_2">
    <path d="M 598.911409 690.221841 
Q 650.677372 640.847131 703.25237 590.700759 
" style="fill: none; stroke: #000000; stroke-linecap: round"/>
    <path d="M 607.785606 687.495076 
L 598.911409 690.221841 
L 602.054515 681.486424 
" style="fill: none; stroke: #000000; stroke-linecap: round"/>
   </g>
   <g id="text_1">
    <g id="patch_3">
     <path d="M 448.119643 818.403972 
L 612.530357 818.403972 
Q 618.758036 818.403972 618.758036 812.176293 
L 618.758036 699.103707 
Q 618.758036 692.876028 612.530357 692.876028 
L 448.119643 692.876028 
Q 441.891964 692.876028 441.891964 699.103707 
L 441.891964 812.176293 
Q 441.891964 818.403972 448.119643 818.403972 
z
" style="fill: #e58139; stroke: #000000; stroke-linejoin: miter"/>
    </g>
    <!-- entropy = 0.0 -->
    <g transform="translate(458.372607 714.877249) scale(0.207589 -0.207589)">
     <defs>
      <path id="DejaVuSans-65" d="M 3597 1894 
L 3597 1613 
L 953 1613 
Q 991 1019 1311 708 
Q 1631 397 2203 397 
Q 2534 397 2845 478 
Q 3156 559 3463 722 
L 3463 178 
Q 3153 47 2828 -22 
Q 2503 -91 2169 -91 
Q 1331 -91 842 396 
Q 353 884 353 1716 
Q 353 2575 817 3079 
Q 1281 3584 2069 3584 
Q 2775 3584 3186 3129 
Q 3597 2675 3597 1894 
z
M 3022 2063 
Q 3016 2534 2758 2815 
Q 2500 3097 2075 3097 
Q 1594 3097 1305 2825 
Q 1016 2553 972 2059 
L 3022 2063 
z
" transform="scale(0.015625)"/>
      <path id="DejaVuSans-6e" d="M 3513 2113 
L 3513 0 
L 2938 0 
L 2938 2094 
Q 2938 2591 2744 2837 
Q 2550 3084 2163 3084 
Q 1697 3084 1428 2787 
Q 1159 2491 1159 1978 
L 1159 0 
L 581 0 
L 581 3500 
L 1159 3500 
L 1159 2956 
Q 1366 3272 1645 3428 
Q 1925 3584 2291 3584 
Q 2894 3584 3203 3211 
Q 3513 2838 3513 2113 
z
" transform="scale(0.015625)"/>
      <path id="DejaVuSans-74" d="M 1172 4494 
L 1172 3500 
L 2356 3500 
L 2356 3053 
L 1172 3053 
L 1172 1153 
Q 1172 725 1289 603 
Q 1406 481 1766 481 
L 2356 481 
L 2356 0 
L 1766 0 
Q 1100 0 847 248 
Q 594 497 594 1153 
L 594 3053 
L 172 3053 
L 172 3500 
L 594 3500 
L 594 4494 
L 1172 4494 
z
" transform="scale(0.015625)"/>
      <path id="DejaVuSans-72" d="M 2631 2963 
Q 2534 3019 2420 3045 
Q 2306 3072 2169 3072 
Q 1681 3072 1420 2755 
Q 1159 2438 1159 1844 
L 1159 0 
L 581 0 
L 581 3500 
L 1159 3500 
L 1159 2956 
Q 1341 3275 1631 3429 
Q 1922 3584 2338 3584 
Q 2397 3584 2469 3576 
Q 2541 3569 2628 3553 
L 2631 2963 
z
" transform="scale(0.015625)"/>
      <path id="DejaVuSans-6f" d="M 1959 3097 
Q 1497 3097 1228 2736 
Q 959 2375 959 1747 
Q 959 1119 1226 758 
Q 1494 397 1959 397 
Q 2419 397 2687 759 
Q 2956 1122 2956 1747 
Q 2956 2369 2687 2733 
Q 2419 3097 1959 3097 
z
M 1959 3584 
Q 2709 3584 3137 3096 
Q 3566 2609 3566 1747 
Q 3566 888 3137 398 
Q 2709 -91 1959 -91 
Q 1206 -91 779 398 
Q 353 888 353 1747 
Q 353 2609 779 3096 
Q 1206 3584 1959 3584 
z
" transform="scale(0.015625)"/>
      <path id="DejaVuSans-70" d="M 1159 525 
L 1159 -1331 
L 581 -1331 
L 581 3500 
L 1159 3500 
L 1159 2969 
Q 1341 3281 1617 3432 
Q 1894 3584 2278 3584 
Q 2916 3584 3314 3078 
Q 3713 2572 3713 1747 
Q 3713 922 3314 415 
Q 2916 -91 2278 -91 
Q 1894 -91 1617 61 
Q 1341 213 1159 525 
z
M 3116 1747 
Q 3116 2381 2855 2742 
Q 2594 3103 2138 3103 
Q 1681 3103 1420 2742 
Q 1159 2381 1159 1747 
Q 1159 1113 1420 752 
Q 1681 391 2138 391 
Q 2594 391 2855 752 
Q 3116 1113 3116 1747 
z
" transform="scale(0.015625)"/>
      <path id="DejaVuSans-79" d="M 2059 -325 
Q 1816 -950 1584 -1140 
Q 1353 -1331 966 -1331 
L 506 -1331 
L 506 -850 
L 844 -850 
Q 1081 -850 1212 -737 
Q 1344 -625 1503 -206 
L 1606 56 
L 191 3500 
L 800 3500 
L 1894 763 
L 2988 3500 
L 3597 3500 
L 2059 -325 
z
" transform="scale(0.015625)"/>
      <path id="DejaVuSans-20" transform="scale(0.015625)"/>
      <path id="DejaVuSans-3d" d="M 678 2906 
L 4684 2906 
L 4684 2381 
L 678 2381 
L 678 2906 
z
M 678 1631 
L 4684 1631 
L 4684 1100 
L 678 1100 
L 678 1631 
z
" transform="scale(0.015625)"/>
      <path id="DejaVuSans-30" d="M 2034 4250 
Q 1547 4250 1301 3770 
Q 1056 3291 1056 2328 
Q 1056 1369 1301 889 
Q 1547 409 2034 409 
Q 2525 409 2770 889 
Q 3016 1369 3016 2328 
Q 3016 3291 2770 3770 
Q 2525 4250 2034 4250 
z
M 2034 4750 
Q 2819 4750 3233 4129 
Q 3647 3509 3647 2328 
Q 3647 1150 3233 529 
Q 2819 -91 2034 -91 
Q 1250 -91 836 529 
Q 422 1150 422 2328 
Q 422 3509 836 4129 
Q 1250 4750 2034 4750 
z
" transform="scale(0.015625)"/>
      <path id="DejaVuSans-2e" d="M 684 794 
L 1344 794 
L 1344 0 
L 684 0 
L 684 794 
z
" transform="scale(0.015625)"/>
     </defs>
     <use xlink:href="#DejaVuSans-65"/>
     <use xlink:href="#DejaVuSans-6e" transform="translate(61.523438 0)"/>
     <use xlink:href="#DejaVuSans-74" transform="translate(124.902344 0)"/>
     <use xlink:href="#DejaVuSans-72" transform="translate(164.111328 0)"/>
     <use xlink:href="#DejaVuSans-6f" transform="translate(202.974609 0)"/>
     <use xlink:href="#DejaVuSans-70" transform="translate(264.15625 0)"/>
     <use xlink:href="#DejaVuSans-79" transform="translate(327.632812 0)"/>
     <use xlink:href="#DejaVuSans-20" transform="translate(386.8125 0)"/>
     <use xlink:href="#DejaVuSans-3d" transform="translate(418.599609 0)"/>
     <use xlink:href="#DejaVuSans-20" transform="translate(502.388672 0)"/>
     <use xlink:href="#DejaVuSans-30" transform="translate(534.175781 0)"/>
     <use xlink:href="#DejaVuSans-2e" transform="translate(597.798828 0)"/>
     <use xlink:href="#DejaVuSans-30" transform="translate(629.585938 0)"/>
    </g>
    <!-- samples = 9 -->
    <g transform="translate(465.281438 738.122708) scale(0.207589 -0.207589)">
     <defs>
      <path id="DejaVuSans-73" d="M 2834 3397 
L 2834 2853 
Q 2591 2978 2328 3040 
Q 2066 3103 1784 3103 
Q 1356 3103 1142 2972 
Q 928 2841 928 2578 
Q 928 2378 1081 2264 
Q 1234 2150 1697 2047 
L 1894 2003 
Q 2506 1872 2764 1633 
Q 3022 1394 3022 966 
Q 3022 478 2636 193 
Q 2250 -91 1575 -91 
Q 1294 -91 989 -36 
Q 684 19 347 128 
L 347 722 
Q 666 556 975 473 
Q 1284 391 1588 391 
Q 1994 391 2212 530 
Q 2431 669 2431 922 
Q 2431 1156 2273 1281 
Q 2116 1406 1581 1522 
L 1381 1569 
Q 847 1681 609 1914 
Q 372 2147 372 2553 
Q 372 3047 722 3315 
Q 1072 3584 1716 3584 
Q 2034 3584 2315 3537 
Q 2597 3491 2834 3397 
z
" transform="scale(0.015625)"/>
      <path id="DejaVuSans-61" d="M 2194 1759 
Q 1497 1759 1228 1600 
Q 959 1441 959 1056 
Q 959 750 1161 570 
Q 1363 391 1709 391 
Q 2188 391 2477 730 
Q 2766 1069 2766 1631 
L 2766 1759 
L 2194 1759 
z
M 3341 1997 
L 3341 0 
L 2766 0 
L 2766 531 
Q 2569 213 2275 61 
Q 1981 -91 1556 -91 
Q 1019 -91 701 211 
Q 384 513 384 1019 
Q 384 1609 779 1909 
Q 1175 2209 1959 2209 
L 2766 2209 
L 2766 2266 
Q 2766 2663 2505 2880 
Q 2244 3097 1772 3097 
Q 1472 3097 1187 3025 
Q 903 2953 641 2809 
L 641 3341 
Q 956 3463 1253 3523 
Q 1550 3584 1831 3584 
Q 2591 3584 2966 3190 
Q 3341 2797 3341 1997 
z
" transform="scale(0.015625)"/>
      <path id="DejaVuSans-6d" d="M 3328 2828 
Q 3544 3216 3844 3400 
Q 4144 3584 4550 3584 
Q 5097 3584 5394 3201 
Q 5691 2819 5691 2113 
L 5691 0 
L 5113 0 
L 5113 2094 
Q 5113 2597 4934 2840 
Q 4756 3084 4391 3084 
Q 3944 3084 3684 2787 
Q 3425 2491 3425 1978 
L 3425 0 
L 2847 0 
L 2847 2094 
Q 2847 2600 2669 2842 
Q 2491 3084 2119 3084 
Q 1678 3084 1418 2786 
Q 1159 2488 1159 1978 
L 1159 0 
L 581 0 
L 581 3500 
L 1159 3500 
L 1159 2956 
Q 1356 3278 1631 3431 
Q 1906 3584 2284 3584 
Q 2666 3584 2933 3390 
Q 3200 3197 3328 2828 
z
" transform="scale(0.015625)"/>
      <path id="DejaVuSans-6c" d="M 603 4863 
L 1178 4863 
L 1178 0 
L 603 0 
L 603 4863 
z
" transform="scale(0.015625)"/>
      <path id="DejaVuSans-39" d="M 703 97 
L 703 672 
Q 941 559 1184 500 
Q 1428 441 1663 441 
Q 2288 441 2617 861 
Q 2947 1281 2994 2138 
Q 2813 1869 2534 1725 
Q 2256 1581 1919 1581 
Q 1219 1581 811 2004 
Q 403 2428 403 3163 
Q 403 3881 828 4315 
Q 1253 4750 1959 4750 
Q 2769 4750 3195 4129 
Q 3622 3509 3622 2328 
Q 3622 1225 3098 567 
Q 2575 -91 1691 -91 
Q 1453 -91 1209 -44 
Q 966 3 703 97 
z
M 1959 2075 
Q 2384 2075 2632 2365 
Q 2881 2656 2881 3163 
Q 2881 3666 2632 3958 
Q 2384 4250 1959 4250 
Q 1534 4250 1286 3958 
Q 1038 3666 1038 3163 
Q 1038 2656 1286 2365 
Q 1534 2075 1959 2075 
z
" transform="scale(0.015625)"/>
     </defs>
     <use xlink:href="#DejaVuSans-73"/>
     <use xlink:href="#DejaVuSans-61" transform="translate(52.099609 0)"/>
     <use xlink:href="#DejaVuSans-6d" transform="translate(113.378906 0)"/>
     <use xlink:href="#DejaVuSans-70" transform="translate(210.791016 0)"/>
     <use xlink:href="#DejaVuSans-6c" transform="translate(274.267578 0)"/>
     <use xlink:href="#DejaVuSans-65" transform="translate(302.050781 0)"/>
     <use xlink:href="#DejaVuSans-73" transform="translate(363.574219 0)"/>
     <use xlink:href="#DejaVuSans-20" transform="translate(415.673828 0)"/>
     <use xlink:href="#DejaVuSans-3d" transform="translate(447.460938 0)"/>
     <use xlink:href="#DejaVuSans-20" transform="translate(531.25 0)"/>
     <use xlink:href="#DejaVuSans-39" transform="translate(563.037109 0)"/>
    </g>
    <!-- value = [[0, 14] -->
    <g transform="translate(448.119643 761.368167) scale(0.207589 -0.207589)">
     <defs>
      <path id="DejaVuSans-76" d="M 191 3500 
L 800 3500 
L 1894 563 
L 2988 3500 
L 3597 3500 
L 2284 0 
L 1503 0 
L 191 3500 
z
" transform="scale(0.015625)"/>
      <path id="DejaVuSans-75" d="M 544 1381 
L 544 3500 
L 1119 3500 
L 1119 1403 
Q 1119 906 1312 657 
Q 1506 409 1894 409 
Q 2359 409 2629 706 
Q 2900 1003 2900 1516 
L 2900 3500 
L 3475 3500 
L 3475 0 
L 2900 0 
L 2900 538 
Q 2691 219 2414 64 
Q 2138 -91 1772 -91 
Q 1169 -91 856 284 
Q 544 659 544 1381 
z
M 1991 3584 
L 1991 3584 
z
" transform="scale(0.015625)"/>
      <path id="DejaVuSans-5b" d="M 550 4863 
L 1875 4863 
L 1875 4416 
L 1125 4416 
L 1125 -397 
L 1875 -397 
L 1875 -844 
L 550 -844 
L 550 4863 
z
" transform="scale(0.015625)"/>
      <path id="DejaVuSans-2c" d="M 750 794 
L 1409 794 
L 1409 256 
L 897 -744 
L 494 -744 
L 750 256 
L 750 794 
z
" transform="scale(0.015625)"/>
      <path id="DejaVuSans-31" d="M 794 531 
L 1825 531 
L 1825 4091 
L 703 3866 
L 703 4441 
L 1819 4666 
L 2450 4666 
L 2450 531 
L 3481 531 
L 3481 0 
L 794 0 
L 794 531 
z
" transform="scale(0.015625)"/>
      <path id="DejaVuSans-34" d="M 2419 4116 
L 825 1625 
L 2419 1625 
L 2419 4116 
z
M 2253 4666 
L 3047 4666 
L 3047 1625 
L 3713 1625 
L 3713 1100 
L 3047 1100 
L 3047 0 
L 2419 0 
L 2419 1100 
L 313 1100 
L 313 1709 
L 2253 4666 
z
" transform="scale(0.015625)"/>
      <path id="DejaVuSans-5d" d="M 1947 4863 
L 1947 -844 
L 622 -844 
L 622 -397 
L 1369 -397 
L 1369 4416 
L 622 4416 
L 622 4863 
L 1947 4863 
z
" transform="scale(0.015625)"/>
     </defs>
     <use xlink:href="#DejaVuSans-76"/>
     <use xlink:href="#DejaVuSans-61" transform="translate(59.179688 0)"/>
     <use xlink:href="#DejaVuSans-6c" transform="translate(120.458984 0)"/>
     <use xlink:href="#DejaVuSans-75" transform="translate(148.242188 0)"/>
     <use xlink:href="#DejaVuSans-65" transform="translate(211.621094 0)"/>
     <use xlink:href="#DejaVuSans-20" transform="translate(273.144531 0)"/>
     <use xlink:href="#DejaVuSans-3d" transform="translate(304.931641 0)"/>
     <use xlink:href="#DejaVuSans-20" transform="translate(388.720703 0)"/>
     <use xlink:href="#DejaVuSans-5b" transform="translate(420.507812 0)"/>
     <use xlink:href="#DejaVuSans-5b" transform="translate(459.521484 0)"/>
     <use xlink:href="#DejaVuSans-30" transform="translate(498.535156 0)"/>
     <use xlink:href="#DejaVuSans-2c" transform="translate(562.158203 0)"/>
     <use xlink:href="#DejaVuSans-20" transform="translate(593.945312 0)"/>
     <use xlink:href="#DejaVuSans-31" transform="translate(625.732422 0)"/>
     <use xlink:href="#DejaVuSans-34" transform="translate(689.355469 0)"/>
     <use xlink:href="#DejaVuSans-5d" transform="translate(752.978516 0)"/>
    </g>
    <!-- [14, 0] -->
    <g transform="translate(495.816525 784.613626) scale(0.207589 -0.207589)">
     <use xlink:href="#DejaVuSans-5b"/>
     <use xlink:href="#DejaVuSans-31" transform="translate(39.013672 0)"/>
     <use xlink:href="#DejaVuSans-34" transform="translate(102.636719 0)"/>
     <use xlink:href="#DejaVuSans-2c" transform="translate(166.259766 0)"/>
     <use xlink:href="#DejaVuSans-20" transform="translate(198.046875 0)"/>
     <use xlink:href="#DejaVuSans-30" transform="translate(229.833984 0)"/>
     <use xlink:href="#DejaVuSans-5d" transform="translate(293.457031 0)"/>
    </g>
    <!-- [14, 0]] -->
    <g transform="translate(491.766912 807.859085) scale(0.207589 -0.207589)">
     <use xlink:href="#DejaVuSans-5b"/>
     <use xlink:href="#DejaVuSans-31" transform="translate(39.013672 0)"/>
     <use xlink:href="#DejaVuSans-34" transform="translate(102.636719 0)"/>
     <use xlink:href="#DejaVuSans-2c" transform="translate(166.259766 0)"/>
     <use xlink:href="#DejaVuSans-20" transform="translate(198.046875 0)"/>
     <use xlink:href="#DejaVuSans-30" transform="translate(229.833984 0)"/>
     <use xlink:href="#DejaVuSans-5d" transform="translate(293.457031 0)"/>
     <use xlink:href="#DejaVuSans-5d" transform="translate(332.470703 0)"/>
    </g>
   </g>
   <g id="patch_4">
    <path d="M 810.488591 690.221841 
Q 758.722628 640.847131 706.14763 590.700759 
" style="fill: none; stroke: #000000; stroke-linecap: round"/>
    <path d="M 807.345485 681.486424 
L 810.488591 690.221841 
L 801.614394 687.495076 
" style="fill: none; stroke: #000000; stroke-linecap: round"/>
   </g>
   <g id="text_2">
    <g id="patch_5">
     <path d="M 803.473577 818.403972 
L 954.676423 818.403972 
Q 960.904102 818.403972 960.904102 812.176293 
L 960.904102 699.103707 
Q 960.904102 692.876028 954.676423 692.876028 
L 803.473577 692.876028 
Q 797.245898 692.876028 797.245898 699.103707 
L 797.245898 812.176293 
Q 797.245898 818.403972 803.473577 818.403972 
z
" style="fill: #e58139; stroke: #000000; stroke-linejoin: miter"/>
    </g>
    <!-- entropy = 0.0 -->
    <g transform="translate(807.122607 714.877249) scale(0.207589 -0.207589)">
     <use xlink:href="#DejaVuSans-65"/>
     <use xlink:href="#DejaVuSans-6e" transform="translate(61.523438 0)"/>
     <use xlink:href="#DejaVuSans-74" transform="translate(124.902344 0)"/>
     <use xlink:href="#DejaVuSans-72" transform="translate(164.111328 0)"/>
     <use xlink:href="#DejaVuSans-6f" transform="translate(202.974609 0)"/>
     <use xlink:href="#DejaVuSans-70" transform="translate(264.15625 0)"/>
     <use xlink:href="#DejaVuSans-79" transform="translate(327.632812 0)"/>
     <use xlink:href="#DejaVuSans-20" transform="translate(386.8125 0)"/>
     <use xlink:href="#DejaVuSans-3d" transform="translate(418.599609 0)"/>
     <use xlink:href="#DejaVuSans-20" transform="translate(502.388672 0)"/>
     <use xlink:href="#DejaVuSans-30" transform="translate(534.175781 0)"/>
     <use xlink:href="#DejaVuSans-2e" transform="translate(597.798828 0)"/>
     <use xlink:href="#DejaVuSans-30" transform="translate(629.585938 0)"/>
    </g>
    <!-- samples = 4 -->
    <g transform="translate(814.031438 738.122708) scale(0.207589 -0.207589)">
     <use xlink:href="#DejaVuSans-73"/>
     <use xlink:href="#DejaVuSans-61" transform="translate(52.099609 0)"/>
     <use xlink:href="#DejaVuSans-6d" transform="translate(113.378906 0)"/>
     <use xlink:href="#DejaVuSans-70" transform="translate(210.791016 0)"/>
     <use xlink:href="#DejaVuSans-6c" transform="translate(274.267578 0)"/>
     <use xlink:href="#DejaVuSans-65" transform="translate(302.050781 0)"/>
     <use xlink:href="#DejaVuSans-73" transform="translate(363.574219 0)"/>
     <use xlink:href="#DejaVuSans-20" transform="translate(415.673828 0)"/>
     <use xlink:href="#DejaVuSans-3d" transform="translate(447.460938 0)"/>
     <use xlink:href="#DejaVuSans-20" transform="translate(531.25 0)"/>
     <use xlink:href="#DejaVuSans-34" transform="translate(563.037109 0)"/>
    </g>
    <!-- value = [[8, 0] -->
    <g transform="translate(803.473577 761.368167) scale(0.207589 -0.207589)">
     <defs>
      <path id="DejaVuSans-38" d="M 2034 2216 
Q 1584 2216 1326 1975 
Q 1069 1734 1069 1313 
Q 1069 891 1326 650 
Q 1584 409 2034 409 
Q 2484 409 2743 651 
Q 3003 894 3003 1313 
Q 3003 1734 2745 1975 
Q 2488 2216 2034 2216 
z
M 1403 2484 
Q 997 2584 770 2862 
Q 544 3141 544 3541 
Q 544 4100 942 4425 
Q 1341 4750 2034 4750 
Q 2731 4750 3128 4425 
Q 3525 4100 3525 3541 
Q 3525 3141 3298 2862 
Q 3072 2584 2669 2484 
Q 3125 2378 3379 2068 
Q 3634 1759 3634 1313 
Q 3634 634 3220 271 
Q 2806 -91 2034 -91 
Q 1263 -91 848 271 
Q 434 634 434 1313 
Q 434 1759 690 2068 
Q 947 2378 1403 2484 
z
M 1172 3481 
Q 1172 3119 1398 2916 
Q 1625 2713 2034 2713 
Q 2441 2713 2670 2916 
Q 2900 3119 2900 3481 
Q 2900 3844 2670 4047 
Q 2441 4250 2034 4250 
Q 1625 4250 1398 4047 
Q 1172 3844 1172 3481 
z
" transform="scale(0.015625)"/>
     </defs>
     <use xlink:href="#DejaVuSans-76"/>
     <use xlink:href="#DejaVuSans-61" transform="translate(59.179688 0)"/>
     <use xlink:href="#DejaVuSans-6c" transform="translate(120.458984 0)"/>
     <use xlink:href="#DejaVuSans-75" transform="translate(148.242188 0)"/>
     <use xlink:href="#DejaVuSans-65" transform="translate(211.621094 0)"/>
     <use xlink:href="#DejaVuSans-20" transform="translate(273.144531 0)"/>
     <use xlink:href="#DejaVuSans-3d" transform="translate(304.931641 0)"/>
     <use xlink:href="#DejaVuSans-20" transform="translate(388.720703 0)"/>
     <use xlink:href="#DejaVuSans-5b" transform="translate(420.507812 0)"/>
     <use xlink:href="#DejaVuSans-5b" transform="translate(459.521484 0)"/>
     <use xlink:href="#DejaVuSans-38" transform="translate(498.535156 0)"/>
     <use xlink:href="#DejaVuSans-2c" transform="translate(562.158203 0)"/>
     <use xlink:href="#DejaVuSans-20" transform="translate(593.945312 0)"/>
     <use xlink:href="#DejaVuSans-30" transform="translate(625.732422 0)"/>
     <use xlink:href="#DejaVuSans-5d" transform="translate(689.355469 0)"/>
    </g>
    <!-- [8, 0] -->
    <g transform="translate(851.170459 784.613626) scale(0.207589 -0.207589)">
     <use xlink:href="#DejaVuSans-5b"/>
     <use xlink:href="#DejaVuSans-38" transform="translate(39.013672 0)"/>
     <use xlink:href="#DejaVuSans-2c" transform="translate(102.636719 0)"/>
     <use xlink:href="#DejaVuSans-20" transform="translate(134.423828 0)"/>
     <use xlink:href="#DejaVuSans-30" transform="translate(166.210938 0)"/>
     <use xlink:href="#DejaVuSans-5d" transform="translate(229.833984 0)"/>
    </g>
    <!-- [0, 8]] -->
    <g transform="translate(847.120846 807.859085) scale(0.207589 -0.207589)">
     <use xlink:href="#DejaVuSans-5b"/>
     <use xlink:href="#DejaVuSans-30" transform="translate(39.013672 0)"/>
     <use xlink:href="#DejaVuSans-2c" transform="translate(102.636719 0)"/>
     <use xlink:href="#DejaVuSans-20" transform="translate(134.423828 0)"/>
     <use xlink:href="#DejaVuSans-38" transform="translate(166.210938 0)"/>
     <use xlink:href="#DejaVuSans-5d" transform="translate(229.833984 0)"/>
     <use xlink:href="#DejaVuSans-5d" transform="translate(268.847656 0)"/>
    </g>
   </g>
   <g id="patch_6">
    <path d="M 785.47321 512.277991 
Q 831.144968 468.715973 877.625762 424.382293 
" style="fill: none; stroke: #000000; stroke-linecap: round"/>
    <path d="M 794.347407 509.551227 
L 785.47321 512.277991 
L 788.616316 503.542575 
" style="fill: none; stroke: #000000; stroke-linecap: round"/>
   </g>
   <g id="text_3">
    <g id="patch_7">
     <path d="M 549.951918 663.706701 
L 859.448082 663.706701 
Q 865.67576 663.706701 865.67576 657.479023 
L 865.67576 521.160977 
Q 865.67576 514.933299 859.448082 514.933299 
L 549.951918 514.933299 
Q 543.72424 514.933299 543.72424 521.160977 
L 543.72424 657.479023 
Q 543.72424 663.706701 549.951918 663.706701 
z
" style="fill: #f8dbc6; stroke: #000000; stroke-linejoin: miter"/>
    </g>
    <!-- Culmen Length (mm) &lt;= -0.3 -->
    <g transform="translate(549.951918 536.934519) scale(0.207589 -0.207589)">
     <defs>
      <path id="DejaVuSans-43" d="M 4122 4306 
L 4122 3641 
Q 3803 3938 3442 4084 
Q 3081 4231 2675 4231 
Q 1875 4231 1450 3742 
Q 1025 3253 1025 2328 
Q 1025 1406 1450 917 
Q 1875 428 2675 428 
Q 3081 428 3442 575 
Q 3803 722 4122 1019 
L 4122 359 
Q 3791 134 3420 21 
Q 3050 -91 2638 -91 
Q 1578 -91 968 557 
Q 359 1206 359 2328 
Q 359 3453 968 4101 
Q 1578 4750 2638 4750 
Q 3056 4750 3426 4639 
Q 3797 4528 4122 4306 
z
" transform="scale(0.015625)"/>
      <path id="DejaVuSans-4c" d="M 628 4666 
L 1259 4666 
L 1259 531 
L 3531 531 
L 3531 0 
L 628 0 
L 628 4666 
z
" transform="scale(0.015625)"/>
      <path id="DejaVuSans-67" d="M 2906 1791 
Q 2906 2416 2648 2759 
Q 2391 3103 1925 3103 
Q 1463 3103 1205 2759 
Q 947 2416 947 1791 
Q 947 1169 1205 825 
Q 1463 481 1925 481 
Q 2391 481 2648 825 
Q 2906 1169 2906 1791 
z
M 3481 434 
Q 3481 -459 3084 -895 
Q 2688 -1331 1869 -1331 
Q 1566 -1331 1297 -1286 
Q 1028 -1241 775 -1147 
L 775 -588 
Q 1028 -725 1275 -790 
Q 1522 -856 1778 -856 
Q 2344 -856 2625 -561 
Q 2906 -266 2906 331 
L 2906 616 
Q 2728 306 2450 153 
Q 2172 0 1784 0 
Q 1141 0 747 490 
Q 353 981 353 1791 
Q 353 2603 747 3093 
Q 1141 3584 1784 3584 
Q 2172 3584 2450 3431 
Q 2728 3278 2906 2969 
L 2906 3500 
L 3481 3500 
L 3481 434 
z
" transform="scale(0.015625)"/>
      <path id="DejaVuSans-68" d="M 3513 2113 
L 3513 0 
L 2938 0 
L 2938 2094 
Q 2938 2591 2744 2837 
Q 2550 3084 2163 3084 
Q 1697 3084 1428 2787 
Q 1159 2491 1159 1978 
L 1159 0 
L 581 0 
L 581 4863 
L 1159 4863 
L 1159 2956 
Q 1366 3272 1645 3428 
Q 1925 3584 2291 3584 
Q 2894 3584 3203 3211 
Q 3513 2838 3513 2113 
z
" transform="scale(0.015625)"/>
      <path id="DejaVuSans-28" d="M 1984 4856 
Q 1566 4138 1362 3434 
Q 1159 2731 1159 2009 
Q 1159 1288 1364 580 
Q 1569 -128 1984 -844 
L 1484 -844 
Q 1016 -109 783 600 
Q 550 1309 550 2009 
Q 550 2706 781 3412 
Q 1013 4119 1484 4856 
L 1984 4856 
z
" transform="scale(0.015625)"/>
      <path id="DejaVuSans-29" d="M 513 4856 
L 1013 4856 
Q 1481 4119 1714 3412 
Q 1947 2706 1947 2009 
Q 1947 1309 1714 600 
Q 1481 -109 1013 -844 
L 513 -844 
Q 928 -128 1133 580 
Q 1338 1288 1338 2009 
Q 1338 2731 1133 3434 
Q 928 4138 513 4856 
z
" transform="scale(0.015625)"/>
      <path id="DejaVuSans-3c" d="M 4684 3150 
L 1459 2003 
L 4684 863 
L 4684 294 
L 678 1747 
L 678 2266 
L 4684 3719 
L 4684 3150 
z
" transform="scale(0.015625)"/>
      <path id="DejaVuSans-2d" d="M 313 2009 
L 1997 2009 
L 1997 1497 
L 313 1497 
L 313 2009 
z
" transform="scale(0.015625)"/>
      <path id="DejaVuSans-33" d="M 2597 2516 
Q 3050 2419 3304 2112 
Q 3559 1806 3559 1356 
Q 3559 666 3084 287 
Q 2609 -91 1734 -91 
Q 1441 -91 1130 -33 
Q 819 25 488 141 
L 488 750 
Q 750 597 1062 519 
Q 1375 441 1716 441 
Q 2309 441 2620 675 
Q 2931 909 2931 1356 
Q 2931 1769 2642 2001 
Q 2353 2234 1838 2234 
L 1294 2234 
L 1294 2753 
L 1863 2753 
Q 2328 2753 2575 2939 
Q 2822 3125 2822 3475 
Q 2822 3834 2567 4026 
Q 2313 4219 1838 4219 
Q 1578 4219 1281 4162 
Q 984 4106 628 3988 
L 628 4550 
Q 988 4650 1302 4700 
Q 1616 4750 1894 4750 
Q 2613 4750 3031 4423 
Q 3450 4097 3450 3541 
Q 3450 3153 3228 2886 
Q 3006 2619 2597 2516 
z
" transform="scale(0.015625)"/>
     </defs>
     <use xlink:href="#DejaVuSans-43"/>
     <use xlink:href="#DejaVuSans-75" transform="translate(69.824219 0)"/>
     <use xlink:href="#DejaVuSans-6c" transform="translate(133.203125 0)"/>
     <use xlink:href="#DejaVuSans-6d" transform="translate(160.986328 0)"/>
     <use xlink:href="#DejaVuSans-65" transform="translate(258.398438 0)"/>
     <use xlink:href="#DejaVuSans-6e" transform="translate(319.921875 0)"/>
     <use xlink:href="#DejaVuSans-20" transform="translate(383.300781 0)"/>
     <use xlink:href="#DejaVuSans-4c" transform="translate(415.087891 0)"/>
     <use xlink:href="#DejaVuSans-65" transform="translate(469.050781 0)"/>
     <use xlink:href="#DejaVuSans-6e" transform="translate(530.574219 0)"/>
     <use xlink:href="#DejaVuSans-67" transform="translate(593.953125 0)"/>
     <use xlink:href="#DejaVuSans-74" transform="translate(657.429688 0)"/>
     <use xlink:href="#DejaVuSans-68" transform="translate(696.638672 0)"/>
     <use xlink:href="#DejaVuSans-20" transform="translate(760.017578 0)"/>
     <use xlink:href="#DejaVuSans-28" transform="translate(791.804688 0)"/>
     <use xlink:href="#DejaVuSans-6d" transform="translate(830.818359 0)"/>
     <use xlink:href="#DejaVuSans-6d" transform="translate(928.230469 0)"/>
     <use xlink:href="#DejaVuSans-29" transform="translate(1025.642578 0)"/>
     <use xlink:href="#DejaVuSans-20" transform="translate(1064.65625 0)"/>
     <use xlink:href="#DejaVuSans-3c" transform="translate(1096.443359 0)"/>
     <use xlink:href="#DejaVuSans-3d" transform="translate(1180.232422 0)"/>
     <use xlink:href="#DejaVuSans-20" transform="translate(1264.021484 0)"/>
     <use xlink:href="#DejaVuSans-2d" transform="translate(1295.808594 0)"/>
     <use xlink:href="#DejaVuSans-30" transform="translate(1331.892578 0)"/>
     <use xlink:href="#DejaVuSans-2e" transform="translate(1395.515625 0)"/>
     <use xlink:href="#DejaVuSans-33" transform="translate(1427.302734 0)"/>
    </g>
    <!-- entropy = 0.63 -->
    <g transform="translate(626.143673 560.179978) scale(0.207589 -0.207589)">
     <defs>
      <path id="DejaVuSans-36" d="M 2113 2584 
Q 1688 2584 1439 2293 
Q 1191 2003 1191 1497 
Q 1191 994 1439 701 
Q 1688 409 2113 409 
Q 2538 409 2786 701 
Q 3034 994 3034 1497 
Q 3034 2003 2786 2293 
Q 2538 2584 2113 2584 
z
M 3366 4563 
L 3366 3988 
Q 3128 4100 2886 4159 
Q 2644 4219 2406 4219 
Q 1781 4219 1451 3797 
Q 1122 3375 1075 2522 
Q 1259 2794 1537 2939 
Q 1816 3084 2150 3084 
Q 2853 3084 3261 2657 
Q 3669 2231 3669 1497 
Q 3669 778 3244 343 
Q 2819 -91 2113 -91 
Q 1303 -91 875 529 
Q 447 1150 447 2328 
Q 447 3434 972 4092 
Q 1497 4750 2381 4750 
Q 2619 4750 2861 4703 
Q 3103 4656 3366 4563 
z
" transform="scale(0.015625)"/>
     </defs>
     <use xlink:href="#DejaVuSans-65"/>
     <use xlink:href="#DejaVuSans-6e" transform="translate(61.523438 0)"/>
     <use xlink:href="#DejaVuSans-74" transform="translate(124.902344 0)"/>
     <use xlink:href="#DejaVuSans-72" transform="translate(164.111328 0)"/>
     <use xlink:href="#DejaVuSans-6f" transform="translate(202.974609 0)"/>
     <use xlink:href="#DejaVuSans-70" transform="translate(264.15625 0)"/>
     <use xlink:href="#DejaVuSans-79" transform="translate(327.632812 0)"/>
     <use xlink:href="#DejaVuSans-20" transform="translate(386.8125 0)"/>
     <use xlink:href="#DejaVuSans-3d" transform="translate(418.599609 0)"/>
     <use xlink:href="#DejaVuSans-20" transform="translate(502.388672 0)"/>
     <use xlink:href="#DejaVuSans-30" transform="translate(534.175781 0)"/>
     <use xlink:href="#DejaVuSans-2e" transform="translate(597.798828 0)"/>
     <use xlink:href="#DejaVuSans-36" transform="translate(629.585938 0)"/>
     <use xlink:href="#DejaVuSans-33" transform="translate(693.208984 0)"/>
    </g>
    <!-- samples = 13 -->
    <g transform="translate(633.052504 583.425437) scale(0.207589 -0.207589)">
     <use xlink:href="#DejaVuSans-73"/>
     <use xlink:href="#DejaVuSans-61" transform="translate(52.099609 0)"/>
     <use xlink:href="#DejaVuSans-6d" transform="translate(113.378906 0)"/>
     <use xlink:href="#DejaVuSans-70" transform="translate(210.791016 0)"/>
     <use xlink:href="#DejaVuSans-6c" transform="translate(274.267578 0)"/>
     <use xlink:href="#DejaVuSans-65" transform="translate(302.050781 0)"/>
     <use xlink:href="#DejaVuSans-73" transform="translate(363.574219 0)"/>
     <use xlink:href="#DejaVuSans-20" transform="translate(415.673828 0)"/>
     <use xlink:href="#DejaVuSans-3d" transform="translate(447.460938 0)"/>
     <use xlink:href="#DejaVuSans-20" transform="translate(531.25 0)"/>
     <use xlink:href="#DejaVuSans-31" transform="translate(563.037109 0)"/>
     <use xlink:href="#DejaVuSans-33" transform="translate(626.660156 0)"/>
    </g>
    <!-- value = [[8, 14] -->
    <g transform="translate(622.494643 606.670896) scale(0.207589 -0.207589)">
     <use xlink:href="#DejaVuSans-76"/>
     <use xlink:href="#DejaVuSans-61" transform="translate(59.179688 0)"/>
     <use xlink:href="#DejaVuSans-6c" transform="translate(120.458984 0)"/>
     <use xlink:href="#DejaVuSans-75" transform="translate(148.242188 0)"/>
     <use xlink:href="#DejaVuSans-65" transform="translate(211.621094 0)"/>
     <use xlink:href="#DejaVuSans-20" transform="translate(273.144531 0)"/>
     <use xlink:href="#DejaVuSans-3d" transform="translate(304.931641 0)"/>
     <use xlink:href="#DejaVuSans-20" transform="translate(388.720703 0)"/>
     <use xlink:href="#DejaVuSans-5b" transform="translate(420.507812 0)"/>
     <use xlink:href="#DejaVuSans-5b" transform="translate(459.521484 0)"/>
     <use xlink:href="#DejaVuSans-38" transform="translate(498.535156 0)"/>
     <use xlink:href="#DejaVuSans-2c" transform="translate(562.158203 0)"/>
     <use xlink:href="#DejaVuSans-20" transform="translate(593.945312 0)"/>
     <use xlink:href="#DejaVuSans-31" transform="translate(625.732422 0)"/>
     <use xlink:href="#DejaVuSans-34" transform="translate(689.355469 0)"/>
     <use xlink:href="#DejaVuSans-5d" transform="translate(752.978516 0)"/>
    </g>
    <!-- [22, 0] -->
    <g transform="translate(670.191525 629.916355) scale(0.207589 -0.207589)">
     <defs>
      <path id="DejaVuSans-32" d="M 1228 531 
L 3431 531 
L 3431 0 
L 469 0 
L 469 531 
Q 828 903 1448 1529 
Q 2069 2156 2228 2338 
Q 2531 2678 2651 2914 
Q 2772 3150 2772 3378 
Q 2772 3750 2511 3984 
Q 2250 4219 1831 4219 
Q 1534 4219 1204 4116 
Q 875 4013 500 3803 
L 500 4441 
Q 881 4594 1212 4672 
Q 1544 4750 1819 4750 
Q 2544 4750 2975 4387 
Q 3406 4025 3406 3419 
Q 3406 3131 3298 2873 
Q 3191 2616 2906 2266 
Q 2828 2175 2409 1742 
Q 1991 1309 1228 531 
z
" transform="scale(0.015625)"/>
     </defs>
     <use xlink:href="#DejaVuSans-5b"/>
     <use xlink:href="#DejaVuSans-32" transform="translate(39.013672 0)"/>
     <use xlink:href="#DejaVuSans-32" transform="translate(102.636719 0)"/>
     <use xlink:href="#DejaVuSans-2c" transform="translate(166.259766 0)"/>
     <use xlink:href="#DejaVuSans-20" transform="translate(198.046875 0)"/>
     <use xlink:href="#DejaVuSans-30" transform="translate(229.833984 0)"/>
     <use xlink:href="#DejaVuSans-5d" transform="translate(293.457031 0)"/>
    </g>
    <!-- [14, 8]] -->
    <g transform="translate(666.141912 653.161814) scale(0.207589 -0.207589)">
     <use xlink:href="#DejaVuSans-5b"/>
     <use xlink:href="#DejaVuSans-31" transform="translate(39.013672 0)"/>
     <use xlink:href="#DejaVuSans-34" transform="translate(102.636719 0)"/>
     <use xlink:href="#DejaVuSans-2c" transform="translate(166.259766 0)"/>
     <use xlink:href="#DejaVuSans-20" transform="translate(198.046875 0)"/>
     <use xlink:href="#DejaVuSans-38" transform="translate(229.833984 0)"/>
     <use xlink:href="#DejaVuSans-5d" transform="translate(293.457031 0)"/>
     <use xlink:href="#DejaVuSans-5d" transform="translate(332.470703 0)"/>
    </g>
   </g>
   <g id="patch_8">
    <path d="M 984.863591 523.901841 
Q 933.097628 474.527131 880.52263 424.380759 
" style="fill: none; stroke: #000000; stroke-linecap: round"/>
    <path d="M 981.720485 515.166424 
L 984.863591 523.901841 
L 975.989394 521.175076 
" style="fill: none; stroke: #000000; stroke-linecap: round"/>
   </g>
   <g id="text_4">
    <g id="patch_9">
     <path d="M 971.244643 652.083972 
L 1135.655357 652.083972 
Q 1141.883036 652.083972 1141.883036 645.856293 
L 1141.883036 532.783707 
Q 1141.883036 526.556028 1135.655357 526.556028 
L 971.244643 526.556028 
Q 965.016964 526.556028 965.016964 532.783707 
L 965.016964 645.856293 
Q 965.016964 652.083972 971.244643 652.083972 
z
" style="fill: #e58139; stroke: #000000; stroke-linejoin: miter"/>
    </g>
    <!-- entropy = 0.0 -->
    <g transform="translate(981.497607 548.557249) scale(0.207589 -0.207589)">
     <use xlink:href="#DejaVuSans-65"/>
     <use xlink:href="#DejaVuSans-6e" transform="translate(61.523438 0)"/>
     <use xlink:href="#DejaVuSans-74" transform="translate(124.902344 0)"/>
     <use xlink:href="#DejaVuSans-72" transform="translate(164.111328 0)"/>
     <use xlink:href="#DejaVuSans-6f" transform="translate(202.974609 0)"/>
     <use xlink:href="#DejaVuSans-70" transform="translate(264.15625 0)"/>
     <use xlink:href="#DejaVuSans-79" transform="translate(327.632812 0)"/>
     <use xlink:href="#DejaVuSans-20" transform="translate(386.8125 0)"/>
     <use xlink:href="#DejaVuSans-3d" transform="translate(418.599609 0)"/>
     <use xlink:href="#DejaVuSans-20" transform="translate(502.388672 0)"/>
     <use xlink:href="#DejaVuSans-30" transform="translate(534.175781 0)"/>
     <use xlink:href="#DejaVuSans-2e" transform="translate(597.798828 0)"/>
     <use xlink:href="#DejaVuSans-30" transform="translate(629.585938 0)"/>
    </g>
    <!-- samples = 37 -->
    <g transform="translate(981.802504 571.802708) scale(0.207589 -0.207589)">
     <defs>
      <path id="DejaVuSans-37" d="M 525 4666 
L 3525 4666 
L 3525 4397 
L 1831 0 
L 1172 0 
L 2766 4134 
L 525 4134 
L 525 4666 
z
" transform="scale(0.015625)"/>
     </defs>
     <use xlink:href="#DejaVuSans-73"/>
     <use xlink:href="#DejaVuSans-61" transform="translate(52.099609 0)"/>
     <use xlink:href="#DejaVuSans-6d" transform="translate(113.378906 0)"/>
     <use xlink:href="#DejaVuSans-70" transform="translate(210.791016 0)"/>
     <use xlink:href="#DejaVuSans-6c" transform="translate(274.267578 0)"/>
     <use xlink:href="#DejaVuSans-65" transform="translate(302.050781 0)"/>
     <use xlink:href="#DejaVuSans-73" transform="translate(363.574219 0)"/>
     <use xlink:href="#DejaVuSans-20" transform="translate(415.673828 0)"/>
     <use xlink:href="#DejaVuSans-3d" transform="translate(447.460938 0)"/>
     <use xlink:href="#DejaVuSans-20" transform="translate(531.25 0)"/>
     <use xlink:href="#DejaVuSans-33" transform="translate(563.037109 0)"/>
     <use xlink:href="#DejaVuSans-37" transform="translate(626.660156 0)"/>
    </g>
    <!-- value = [[0, 50] -->
    <g transform="translate(971.244643 595.048167) scale(0.207589 -0.207589)">
     <defs>
      <path id="DejaVuSans-35" d="M 691 4666 
L 3169 4666 
L 3169 4134 
L 1269 4134 
L 1269 2991 
Q 1406 3038 1543 3061 
Q 1681 3084 1819 3084 
Q 2600 3084 3056 2656 
Q 3513 2228 3513 1497 
Q 3513 744 3044 326 
Q 2575 -91 1722 -91 
Q 1428 -91 1123 -41 
Q 819 9 494 109 
L 494 744 
Q 775 591 1075 516 
Q 1375 441 1709 441 
Q 2250 441 2565 725 
Q 2881 1009 2881 1497 
Q 2881 1984 2565 2268 
Q 2250 2553 1709 2553 
Q 1456 2553 1204 2497 
Q 953 2441 691 2322 
L 691 4666 
z
" transform="scale(0.015625)"/>
     </defs>
     <use xlink:href="#DejaVuSans-76"/>
     <use xlink:href="#DejaVuSans-61" transform="translate(59.179688 0)"/>
     <use xlink:href="#DejaVuSans-6c" transform="translate(120.458984 0)"/>
     <use xlink:href="#DejaVuSans-75" transform="translate(148.242188 0)"/>
     <use xlink:href="#DejaVuSans-65" transform="translate(211.621094 0)"/>
     <use xlink:href="#DejaVuSans-20" transform="translate(273.144531 0)"/>
     <use xlink:href="#DejaVuSans-3d" transform="translate(304.931641 0)"/>
     <use xlink:href="#DejaVuSans-20" transform="translate(388.720703 0)"/>
     <use xlink:href="#DejaVuSans-5b" transform="translate(420.507812 0)"/>
     <use xlink:href="#DejaVuSans-5b" transform="translate(459.521484 0)"/>
     <use xlink:href="#DejaVuSans-30" transform="translate(498.535156 0)"/>
     <use xlink:href="#DejaVuSans-2c" transform="translate(562.158203 0)"/>
     <use xlink:href="#DejaVuSans-20" transform="translate(593.945312 0)"/>
     <use xlink:href="#DejaVuSans-35" transform="translate(625.732422 0)"/>
     <use xlink:href="#DejaVuSans-30" transform="translate(689.355469 0)"/>
     <use xlink:href="#DejaVuSans-5d" transform="translate(752.978516 0)"/>
    </g>
    <!-- [50, 0] -->
    <g transform="translate(1018.941525 618.293626) scale(0.207589 -0.207589)">
     <use xlink:href="#DejaVuSans-5b"/>
     <use xlink:href="#DejaVuSans-35" transform="translate(39.013672 0)"/>
     <use xlink:href="#DejaVuSans-30" transform="translate(102.636719 0)"/>
     <use xlink:href="#DejaVuSans-2c" transform="translate(166.259766 0)"/>
     <use xlink:href="#DejaVuSans-20" transform="translate(198.046875 0)"/>
     <use xlink:href="#DejaVuSans-30" transform="translate(229.833984 0)"/>
     <use xlink:href="#DejaVuSans-5d" transform="translate(293.457031 0)"/>
    </g>
    <!-- [50, 0]] -->
    <g transform="translate(1014.891912 641.539085) scale(0.207589 -0.207589)">
     <use xlink:href="#DejaVuSans-5b"/>
     <use xlink:href="#DejaVuSans-35" transform="translate(39.013672 0)"/>
     <use xlink:href="#DejaVuSans-30" transform="translate(102.636719 0)"/>
     <use xlink:href="#DejaVuSans-2c" transform="translate(166.259766 0)"/>
     <use xlink:href="#DejaVuSans-20" transform="translate(198.046875 0)"/>
     <use xlink:href="#DejaVuSans-30" transform="translate(229.833984 0)"/>
     <use xlink:href="#DejaVuSans-5d" transform="translate(293.457031 0)"/>
     <use xlink:href="#DejaVuSans-5d" transform="translate(332.470703 0)"/>
    </g>
   </g>
   <g id="patch_10">
    <path d="M 250.161409 357.581841 
Q 301.927372 308.207131 354.50237 258.060759 
" style="fill: none; stroke: #000000; stroke-linecap: round"/>
    <path d="M 259.035606 354.855076 
L 250.161409 357.581841 
L 253.304515 348.846424 
" style="fill: none; stroke: #000000; stroke-linecap: round"/>
   </g>
   <g id="text_5">
    <g id="patch_11">
     <path d="M 105.973577 485.763972 
L 257.176423 485.763972 
Q 263.404102 485.763972 263.404102 479.536293 
L 263.404102 366.463707 
Q 263.404102 360.236028 257.176423 360.236028 
L 105.973577 360.236028 
Q 99.745898 360.236028 99.745898 366.463707 
L 99.745898 479.536293 
Q 99.745898 485.763972 105.973577 485.763972 
z
" style="fill: #e58139; stroke: #000000; stroke-linejoin: miter"/>
    </g>
    <!-- entropy = 0.0 -->
    <g transform="translate(109.622607 382.237249) scale(0.207589 -0.207589)">
     <use xlink:href="#DejaVuSans-65"/>
     <use xlink:href="#DejaVuSans-6e" transform="translate(61.523438 0)"/>
     <use xlink:href="#DejaVuSans-74" transform="translate(124.902344 0)"/>
     <use xlink:href="#DejaVuSans-72" transform="translate(164.111328 0)"/>
     <use xlink:href="#DejaVuSans-6f" transform="translate(202.974609 0)"/>
     <use xlink:href="#DejaVuSans-70" transform="translate(264.15625 0)"/>
     <use xlink:href="#DejaVuSans-79" transform="translate(327.632812 0)"/>
     <use xlink:href="#DejaVuSans-20" transform="translate(386.8125 0)"/>
     <use xlink:href="#DejaVuSans-3d" transform="translate(418.599609 0)"/>
     <use xlink:href="#DejaVuSans-20" transform="translate(502.388672 0)"/>
     <use xlink:href="#DejaVuSans-30" transform="translate(534.175781 0)"/>
     <use xlink:href="#DejaVuSans-2e" transform="translate(597.798828 0)"/>
     <use xlink:href="#DejaVuSans-30" transform="translate(629.585938 0)"/>
    </g>
    <!-- samples = 2 -->
    <g transform="translate(116.531438 405.482708) scale(0.207589 -0.207589)">
     <use xlink:href="#DejaVuSans-73"/>
     <use xlink:href="#DejaVuSans-61" transform="translate(52.099609 0)"/>
     <use xlink:href="#DejaVuSans-6d" transform="translate(113.378906 0)"/>
     <use xlink:href="#DejaVuSans-70" transform="translate(210.791016 0)"/>
     <use xlink:href="#DejaVuSans-6c" transform="translate(274.267578 0)"/>
     <use xlink:href="#DejaVuSans-65" transform="translate(302.050781 0)"/>
     <use xlink:href="#DejaVuSans-73" transform="translate(363.574219 0)"/>
     <use xlink:href="#DejaVuSans-20" transform="translate(415.673828 0)"/>
     <use xlink:href="#DejaVuSans-3d" transform="translate(447.460938 0)"/>
     <use xlink:href="#DejaVuSans-20" transform="translate(531.25 0)"/>
     <use xlink:href="#DejaVuSans-32" transform="translate(563.037109 0)"/>
    </g>
    <!-- value = [[0, 2] -->
    <g transform="translate(105.973577 428.728167) scale(0.207589 -0.207589)">
     <use xlink:href="#DejaVuSans-76"/>
     <use xlink:href="#DejaVuSans-61" transform="translate(59.179688 0)"/>
     <use xlink:href="#DejaVuSans-6c" transform="translate(120.458984 0)"/>
     <use xlink:href="#DejaVuSans-75" transform="translate(148.242188 0)"/>
     <use xlink:href="#DejaVuSans-65" transform="translate(211.621094 0)"/>
     <use xlink:href="#DejaVuSans-20" transform="translate(273.144531 0)"/>
     <use xlink:href="#DejaVuSans-3d" transform="translate(304.931641 0)"/>
     <use xlink:href="#DejaVuSans-20" transform="translate(388.720703 0)"/>
     <use xlink:href="#DejaVuSans-5b" transform="translate(420.507812 0)"/>
     <use xlink:href="#DejaVuSans-5b" transform="translate(459.521484 0)"/>
     <use xlink:href="#DejaVuSans-30" transform="translate(498.535156 0)"/>
     <use xlink:href="#DejaVuSans-2c" transform="translate(562.158203 0)"/>
     <use xlink:href="#DejaVuSans-20" transform="translate(593.945312 0)"/>
     <use xlink:href="#DejaVuSans-32" transform="translate(625.732422 0)"/>
     <use xlink:href="#DejaVuSans-5d" transform="translate(689.355469 0)"/>
    </g>
    <!-- [2, 0] -->
    <g transform="translate(153.670459 451.973626) scale(0.207589 -0.207589)">
     <use xlink:href="#DejaVuSans-5b"/>
     <use xlink:href="#DejaVuSans-32" transform="translate(39.013672 0)"/>
     <use xlink:href="#DejaVuSans-2c" transform="translate(102.636719 0)"/>
     <use xlink:href="#DejaVuSans-20" transform="translate(134.423828 0)"/>
     <use xlink:href="#DejaVuSans-30" transform="translate(166.210938 0)"/>
     <use xlink:href="#DejaVuSans-5d" transform="translate(229.833984 0)"/>
    </g>
    <!-- [2, 0]] -->
    <g transform="translate(149.620846 475.219085) scale(0.207589 -0.207589)">
     <use xlink:href="#DejaVuSans-5b"/>
     <use xlink:href="#DejaVuSans-32" transform="translate(39.013672 0)"/>
     <use xlink:href="#DejaVuSans-2c" transform="translate(102.636719 0)"/>
     <use xlink:href="#DejaVuSans-20" transform="translate(134.423828 0)"/>
     <use xlink:href="#DejaVuSans-30" transform="translate(166.210938 0)"/>
     <use xlink:href="#DejaVuSans-5d" transform="translate(229.833984 0)"/>
     <use xlink:href="#DejaVuSans-5d" transform="translate(268.847656 0)"/>
    </g>
   </g>
   <g id="patch_12">
    <path d="M 461.738591 357.581841 
Q 409.972628 308.207131 357.39763 258.060759 
" style="fill: none; stroke: #000000; stroke-linecap: round"/>
    <path d="M 458.595485 348.846424 
L 461.738591 357.581841 
L 452.864394 354.855076 
" style="fill: none; stroke: #000000; stroke-linecap: round"/>
   </g>
   <g id="text_6">
    <g id="patch_13">
     <path d="M 448.119643 485.763972 
L 612.530357 485.763972 
Q 618.758036 485.763972 618.758036 479.536293 
L 618.758036 366.463707 
Q 618.758036 360.236028 612.530357 360.236028 
L 448.119643 360.236028 
Q 441.891964 360.236028 441.891964 366.463707 
L 441.891964 479.536293 
Q 441.891964 485.763972 448.119643 485.763972 
z
" style="fill: #e58139; stroke: #000000; stroke-linejoin: miter"/>
    </g>
    <!-- entropy = 0.0 -->
    <g transform="translate(458.372607 382.237249) scale(0.207589 -0.207589)">
     <use xlink:href="#DejaVuSans-65"/>
     <use xlink:href="#DejaVuSans-6e" transform="translate(61.523438 0)"/>
     <use xlink:href="#DejaVuSans-74" transform="translate(124.902344 0)"/>
     <use xlink:href="#DejaVuSans-72" transform="translate(164.111328 0)"/>
     <use xlink:href="#DejaVuSans-6f" transform="translate(202.974609 0)"/>
     <use xlink:href="#DejaVuSans-70" transform="translate(264.15625 0)"/>
     <use xlink:href="#DejaVuSans-79" transform="translate(327.632812 0)"/>
     <use xlink:href="#DejaVuSans-20" transform="translate(386.8125 0)"/>
     <use xlink:href="#DejaVuSans-3d" transform="translate(418.599609 0)"/>
     <use xlink:href="#DejaVuSans-20" transform="translate(502.388672 0)"/>
     <use xlink:href="#DejaVuSans-30" transform="translate(534.175781 0)"/>
     <use xlink:href="#DejaVuSans-2e" transform="translate(597.798828 0)"/>
     <use xlink:href="#DejaVuSans-30" transform="translate(629.585938 0)"/>
    </g>
    <!-- samples = 40 -->
    <g transform="translate(458.677504 405.482708) scale(0.207589 -0.207589)">
     <use xlink:href="#DejaVuSans-73"/>
     <use xlink:href="#DejaVuSans-61" transform="translate(52.099609 0)"/>
     <use xlink:href="#DejaVuSans-6d" transform="translate(113.378906 0)"/>
     <use xlink:href="#DejaVuSans-70" transform="translate(210.791016 0)"/>
     <use xlink:href="#DejaVuSans-6c" transform="translate(274.267578 0)"/>
     <use xlink:href="#DejaVuSans-65" transform="translate(302.050781 0)"/>
     <use xlink:href="#DejaVuSans-73" transform="translate(363.574219 0)"/>
     <use xlink:href="#DejaVuSans-20" transform="translate(415.673828 0)"/>
     <use xlink:href="#DejaVuSans-3d" transform="translate(447.460938 0)"/>
     <use xlink:href="#DejaVuSans-20" transform="translate(531.25 0)"/>
     <use xlink:href="#DejaVuSans-34" transform="translate(563.037109 0)"/>
     <use xlink:href="#DejaVuSans-30" transform="translate(626.660156 0)"/>
    </g>
    <!-- value = [[63, 0] -->
    <g transform="translate(448.119643 428.728167) scale(0.207589 -0.207589)">
     <use xlink:href="#DejaVuSans-76"/>
     <use xlink:href="#DejaVuSans-61" transform="translate(59.179688 0)"/>
     <use xlink:href="#DejaVuSans-6c" transform="translate(120.458984 0)"/>
     <use xlink:href="#DejaVuSans-75" transform="translate(148.242188 0)"/>
     <use xlink:href="#DejaVuSans-65" transform="translate(211.621094 0)"/>
     <use xlink:href="#DejaVuSans-20" transform="translate(273.144531 0)"/>
     <use xlink:href="#DejaVuSans-3d" transform="translate(304.931641 0)"/>
     <use xlink:href="#DejaVuSans-20" transform="translate(388.720703 0)"/>
     <use xlink:href="#DejaVuSans-5b" transform="translate(420.507812 0)"/>
     <use xlink:href="#DejaVuSans-5b" transform="translate(459.521484 0)"/>
     <use xlink:href="#DejaVuSans-36" transform="translate(498.535156 0)"/>
     <use xlink:href="#DejaVuSans-33" transform="translate(562.158203 0)"/>
     <use xlink:href="#DejaVuSans-2c" transform="translate(625.78125 0)"/>
     <use xlink:href="#DejaVuSans-20" transform="translate(657.568359 0)"/>
     <use xlink:href="#DejaVuSans-30" transform="translate(689.355469 0)"/>
     <use xlink:href="#DejaVuSans-5d" transform="translate(752.978516 0)"/>
    </g>
    <!-- [63, 0] -->
    <g transform="translate(495.816525 451.973626) scale(0.207589 -0.207589)">
     <use xlink:href="#DejaVuSans-5b"/>
     <use xlink:href="#DejaVuSans-36" transform="translate(39.013672 0)"/>
     <use xlink:href="#DejaVuSans-33" transform="translate(102.636719 0)"/>
     <use xlink:href="#DejaVuSans-2c" transform="translate(166.259766 0)"/>
     <use xlink:href="#DejaVuSans-20" transform="translate(198.046875 0)"/>
     <use xlink:href="#DejaVuSans-30" transform="translate(229.833984 0)"/>
     <use xlink:href="#DejaVuSans-5d" transform="translate(293.457031 0)"/>
    </g>
    <!-- [0, 63]] -->
    <g transform="translate(491.766912 475.219085) scale(0.207589 -0.207589)">
     <use xlink:href="#DejaVuSans-5b"/>
     <use xlink:href="#DejaVuSans-30" transform="translate(39.013672 0)"/>
     <use xlink:href="#DejaVuSans-2c" transform="translate(102.636719 0)"/>
     <use xlink:href="#DejaVuSans-20" transform="translate(134.423828 0)"/>
     <use xlink:href="#DejaVuSans-36" transform="translate(166.210938 0)"/>
     <use xlink:href="#DejaVuSans-33" transform="translate(229.833984 0)"/>
     <use xlink:href="#DejaVuSans-5d" transform="translate(293.457031 0)"/>
     <use xlink:href="#DejaVuSans-5d" transform="translate(332.470703 0)"/>
    </g>
   </g>
   <g id="patch_14">
    <path d="M 959.84821 345.957991 
Q 1005.519968 302.395973 1052.000762 258.062293 
" style="fill: none; stroke: #000000; stroke-linecap: round"/>
    <path d="M 968.722407 343.231227 
L 959.84821 345.957991 
L 962.991316 337.222575 
" style="fill: none; stroke: #000000; stroke-linecap: round"/>
   </g>
   <g id="text_7">
    <g id="patch_15">
     <path d="M 725.655165 497.386701 
L 1032.494835 497.386701 
Q 1038.722513 497.386701 1038.722513 491.159023 
L 1038.722513 354.840977 
Q 1038.722513 348.613299 1032.494835 348.613299 
L 725.655165 348.613299 
Q 719.427487 348.613299 719.427487 354.840977 
L 719.427487 491.159023 
Q 719.427487 497.386701 725.655165 497.386701 
z
" style="fill: #efb184; stroke: #000000; stroke-linejoin: miter"/>
    </g>
    <!-- Culmen Depth (mm) &lt;= 0.09 -->
    <g transform="translate(725.655165 370.614519) scale(0.207589 -0.207589)">
     <defs>
      <path id="DejaVuSans-44" d="M 1259 4147 
L 1259 519 
L 2022 519 
Q 2988 519 3436 956 
Q 3884 1394 3884 2338 
Q 3884 3275 3436 3711 
Q 2988 4147 2022 4147 
L 1259 4147 
z
M 628 4666 
L 1925 4666 
Q 3281 4666 3915 4102 
Q 4550 3538 4550 2338 
Q 4550 1131 3912 565 
Q 3275 0 1925 0 
L 628 0 
L 628 4666 
z
" transform="scale(0.015625)"/>
     </defs>
     <use xlink:href="#DejaVuSans-43"/>
     <use xlink:href="#DejaVuSans-75" transform="translate(69.824219 0)"/>
     <use xlink:href="#DejaVuSans-6c" transform="translate(133.203125 0)"/>
     <use xlink:href="#DejaVuSans-6d" transform="translate(160.986328 0)"/>
     <use xlink:href="#DejaVuSans-65" transform="translate(258.398438 0)"/>
     <use xlink:href="#DejaVuSans-6e" transform="translate(319.921875 0)"/>
     <use xlink:href="#DejaVuSans-20" transform="translate(383.300781 0)"/>
     <use xlink:href="#DejaVuSans-44" transform="translate(415.087891 0)"/>
     <use xlink:href="#DejaVuSans-65" transform="translate(492.089844 0)"/>
     <use xlink:href="#DejaVuSans-70" transform="translate(553.613281 0)"/>
     <use xlink:href="#DejaVuSans-74" transform="translate(617.089844 0)"/>
     <use xlink:href="#DejaVuSans-68" transform="translate(656.298828 0)"/>
     <use xlink:href="#DejaVuSans-20" transform="translate(719.677734 0)"/>
     <use xlink:href="#DejaVuSans-28" transform="translate(751.464844 0)"/>
     <use xlink:href="#DejaVuSans-6d" transform="translate(790.478516 0)"/>
     <use xlink:href="#DejaVuSans-6d" transform="translate(887.890625 0)"/>
     <use xlink:href="#DejaVuSans-29" transform="translate(985.302734 0)"/>
     <use xlink:href="#DejaVuSans-20" transform="translate(1024.316406 0)"/>
     <use xlink:href="#DejaVuSans-3c" transform="translate(1056.103516 0)"/>
     <use xlink:href="#DejaVuSans-3d" transform="translate(1139.892578 0)"/>
     <use xlink:href="#DejaVuSans-20" transform="translate(1223.681641 0)"/>
     <use xlink:href="#DejaVuSans-30" transform="translate(1255.46875 0)"/>
     <use xlink:href="#DejaVuSans-2e" transform="translate(1319.091797 0)"/>
     <use xlink:href="#DejaVuSans-30" transform="translate(1350.878906 0)"/>
     <use xlink:href="#DejaVuSans-39" transform="translate(1414.501953 0)"/>
    </g>
    <!-- entropy = 0.336 -->
    <g transform="translate(793.914739 393.859978) scale(0.207589 -0.207589)">
     <use xlink:href="#DejaVuSans-65"/>
     <use xlink:href="#DejaVuSans-6e" transform="translate(61.523438 0)"/>
     <use xlink:href="#DejaVuSans-74" transform="translate(124.902344 0)"/>
     <use xlink:href="#DejaVuSans-72" transform="translate(164.111328 0)"/>
     <use xlink:href="#DejaVuSans-6f" transform="translate(202.974609 0)"/>
     <use xlink:href="#DejaVuSans-70" transform="translate(264.15625 0)"/>
     <use xlink:href="#DejaVuSans-79" transform="translate(327.632812 0)"/>
     <use xlink:href="#DejaVuSans-20" transform="translate(386.8125 0)"/>
     <use xlink:href="#DejaVuSans-3d" transform="translate(418.599609 0)"/>
     <use xlink:href="#DejaVuSans-20" transform="translate(502.388672 0)"/>
     <use xlink:href="#DejaVuSans-30" transform="translate(534.175781 0)"/>
     <use xlink:href="#DejaVuSans-2e" transform="translate(597.798828 0)"/>
     <use xlink:href="#DejaVuSans-33" transform="translate(629.585938 0)"/>
     <use xlink:href="#DejaVuSans-33" transform="translate(693.208984 0)"/>
     <use xlink:href="#DejaVuSans-36" transform="translate(756.832031 0)"/>
    </g>
    <!-- samples = 50 -->
    <g transform="translate(807.427504 417.105437) scale(0.207589 -0.207589)">
     <use xlink:href="#DejaVuSans-73"/>
     <use xlink:href="#DejaVuSans-61" transform="translate(52.099609 0)"/>
     <use xlink:href="#DejaVuSans-6d" transform="translate(113.378906 0)"/>
     <use xlink:href="#DejaVuSans-70" transform="translate(210.791016 0)"/>
     <use xlink:href="#DejaVuSans-6c" transform="translate(274.267578 0)"/>
     <use xlink:href="#DejaVuSans-65" transform="translate(302.050781 0)"/>
     <use xlink:href="#DejaVuSans-73" transform="translate(363.574219 0)"/>
     <use xlink:href="#DejaVuSans-20" transform="translate(415.673828 0)"/>
     <use xlink:href="#DejaVuSans-3d" transform="translate(447.460938 0)"/>
     <use xlink:href="#DejaVuSans-20" transform="translate(531.25 0)"/>
     <use xlink:href="#DejaVuSans-35" transform="translate(563.037109 0)"/>
     <use xlink:href="#DejaVuSans-30" transform="translate(626.660156 0)"/>
    </g>
    <!-- value = [[8, 64] -->
    <g transform="translate(796.869643 440.350896) scale(0.207589 -0.207589)">
     <use xlink:href="#DejaVuSans-76"/>
     <use xlink:href="#DejaVuSans-61" transform="translate(59.179688 0)"/>
     <use xlink:href="#DejaVuSans-6c" transform="translate(120.458984 0)"/>
     <use xlink:href="#DejaVuSans-75" transform="translate(148.242188 0)"/>
     <use xlink:href="#DejaVuSans-65" transform="translate(211.621094 0)"/>
     <use xlink:href="#DejaVuSans-20" transform="translate(273.144531 0)"/>
     <use xlink:href="#DejaVuSans-3d" transform="translate(304.931641 0)"/>
     <use xlink:href="#DejaVuSans-20" transform="translate(388.720703 0)"/>
     <use xlink:href="#DejaVuSans-5b" transform="translate(420.507812 0)"/>
     <use xlink:href="#DejaVuSans-5b" transform="translate(459.521484 0)"/>
     <use xlink:href="#DejaVuSans-38" transform="translate(498.535156 0)"/>
     <use xlink:href="#DejaVuSans-2c" transform="translate(562.158203 0)"/>
     <use xlink:href="#DejaVuSans-20" transform="translate(593.945312 0)"/>
     <use xlink:href="#DejaVuSans-36" transform="translate(625.732422 0)"/>
     <use xlink:href="#DejaVuSans-34" transform="translate(689.355469 0)"/>
     <use xlink:href="#DejaVuSans-5d" transform="translate(752.978516 0)"/>
    </g>
    <!-- [72, 0] -->
    <g transform="translate(844.566525 463.596355) scale(0.207589 -0.207589)">
     <use xlink:href="#DejaVuSans-5b"/>
     <use xlink:href="#DejaVuSans-37" transform="translate(39.013672 0)"/>
     <use xlink:href="#DejaVuSans-32" transform="translate(102.636719 0)"/>
     <use xlink:href="#DejaVuSans-2c" transform="translate(166.259766 0)"/>
     <use xlink:href="#DejaVuSans-20" transform="translate(198.046875 0)"/>
     <use xlink:href="#DejaVuSans-30" transform="translate(229.833984 0)"/>
     <use xlink:href="#DejaVuSans-5d" transform="translate(293.457031 0)"/>
    </g>
    <!-- [64, 8]] -->
    <g transform="translate(840.516912 486.841814) scale(0.207589 -0.207589)">
     <use xlink:href="#DejaVuSans-5b"/>
     <use xlink:href="#DejaVuSans-36" transform="translate(39.013672 0)"/>
     <use xlink:href="#DejaVuSans-34" transform="translate(102.636719 0)"/>
     <use xlink:href="#DejaVuSans-2c" transform="translate(166.259766 0)"/>
     <use xlink:href="#DejaVuSans-20" transform="translate(198.046875 0)"/>
     <use xlink:href="#DejaVuSans-38" transform="translate(229.833984 0)"/>
     <use xlink:href="#DejaVuSans-5d" transform="translate(293.457031 0)"/>
     <use xlink:href="#DejaVuSans-5d" transform="translate(332.470703 0)"/>
    </g>
   </g>
   <g id="patch_16">
    <path d="M 1159.238591 357.581841 
Q 1107.472628 308.207131 1054.89763 258.060759 
" style="fill: none; stroke: #000000; stroke-linecap: round"/>
    <path d="M 1156.095485 348.846424 
L 1159.238591 357.581841 
L 1150.364394 354.855076 
" style="fill: none; stroke: #000000; stroke-linecap: round"/>
   </g>
   <g id="text_8">
    <g id="patch_17">
     <path d="M 1145.619643 485.763972 
L 1310.030357 485.763972 
Q 1316.258036 485.763972 1316.258036 479.536293 
L 1316.258036 366.463707 
Q 1316.258036 360.236028 1310.030357 360.236028 
L 1145.619643 360.236028 
Q 1139.391964 360.236028 1139.391964 366.463707 
L 1139.391964 479.536293 
Q 1139.391964 485.763972 1145.619643 485.763972 
z
" style="fill: #e58139; stroke: #000000; stroke-linejoin: miter"/>
    </g>
    <!-- entropy = 0.0 -->
    <g transform="translate(1155.872607 382.237249) scale(0.207589 -0.207589)">
     <use xlink:href="#DejaVuSans-65"/>
     <use xlink:href="#DejaVuSans-6e" transform="translate(61.523438 0)"/>
     <use xlink:href="#DejaVuSans-74" transform="translate(124.902344 0)"/>
     <use xlink:href="#DejaVuSans-72" transform="translate(164.111328 0)"/>
     <use xlink:href="#DejaVuSans-6f" transform="translate(202.974609 0)"/>
     <use xlink:href="#DejaVuSans-70" transform="translate(264.15625 0)"/>
     <use xlink:href="#DejaVuSans-79" transform="translate(327.632812 0)"/>
     <use xlink:href="#DejaVuSans-20" transform="translate(386.8125 0)"/>
     <use xlink:href="#DejaVuSans-3d" transform="translate(418.599609 0)"/>
     <use xlink:href="#DejaVuSans-20" transform="translate(502.388672 0)"/>
     <use xlink:href="#DejaVuSans-30" transform="translate(534.175781 0)"/>
     <use xlink:href="#DejaVuSans-2e" transform="translate(597.798828 0)"/>
     <use xlink:href="#DejaVuSans-30" transform="translate(629.585938 0)"/>
    </g>
    <!-- samples = 21 -->
    <g transform="translate(1156.177504 405.482708) scale(0.207589 -0.207589)">
     <use xlink:href="#DejaVuSans-73"/>
     <use xlink:href="#DejaVuSans-61" transform="translate(52.099609 0)"/>
     <use xlink:href="#DejaVuSans-6d" transform="translate(113.378906 0)"/>
     <use xlink:href="#DejaVuSans-70" transform="translate(210.791016 0)"/>
     <use xlink:href="#DejaVuSans-6c" transform="translate(274.267578 0)"/>
     <use xlink:href="#DejaVuSans-65" transform="translate(302.050781 0)"/>
     <use xlink:href="#DejaVuSans-73" transform="translate(363.574219 0)"/>
     <use xlink:href="#DejaVuSans-20" transform="translate(415.673828 0)"/>
     <use xlink:href="#DejaVuSans-3d" transform="translate(447.460938 0)"/>
     <use xlink:href="#DejaVuSans-20" transform="translate(531.25 0)"/>
     <use xlink:href="#DejaVuSans-32" transform="translate(563.037109 0)"/>
     <use xlink:href="#DejaVuSans-31" transform="translate(626.660156 0)"/>
    </g>
    <!-- value = [[33, 0] -->
    <g transform="translate(1145.619643 428.728167) scale(0.207589 -0.207589)">
     <use xlink:href="#DejaVuSans-76"/>
     <use xlink:href="#DejaVuSans-61" transform="translate(59.179688 0)"/>
     <use xlink:href="#DejaVuSans-6c" transform="translate(120.458984 0)"/>
     <use xlink:href="#DejaVuSans-75" transform="translate(148.242188 0)"/>
     <use xlink:href="#DejaVuSans-65" transform="translate(211.621094 0)"/>
     <use xlink:href="#DejaVuSans-20" transform="translate(273.144531 0)"/>
     <use xlink:href="#DejaVuSans-3d" transform="translate(304.931641 0)"/>
     <use xlink:href="#DejaVuSans-20" transform="translate(388.720703 0)"/>
     <use xlink:href="#DejaVuSans-5b" transform="translate(420.507812 0)"/>
     <use xlink:href="#DejaVuSans-5b" transform="translate(459.521484 0)"/>
     <use xlink:href="#DejaVuSans-33" transform="translate(498.535156 0)"/>
     <use xlink:href="#DejaVuSans-33" transform="translate(562.158203 0)"/>
     <use xlink:href="#DejaVuSans-2c" transform="translate(625.78125 0)"/>
     <use xlink:href="#DejaVuSans-20" transform="translate(657.568359 0)"/>
     <use xlink:href="#DejaVuSans-30" transform="translate(689.355469 0)"/>
     <use xlink:href="#DejaVuSans-5d" transform="translate(752.978516 0)"/>
    </g>
    <!-- [0, 33] -->
    <g transform="translate(1193.316525 451.973626) scale(0.207589 -0.207589)">
     <use xlink:href="#DejaVuSans-5b"/>
     <use xlink:href="#DejaVuSans-30" transform="translate(39.013672 0)"/>
     <use xlink:href="#DejaVuSans-2c" transform="translate(102.636719 0)"/>
     <use xlink:href="#DejaVuSans-20" transform="translate(134.423828 0)"/>
     <use xlink:href="#DejaVuSans-33" transform="translate(166.210938 0)"/>
     <use xlink:href="#DejaVuSans-33" transform="translate(229.833984 0)"/>
     <use xlink:href="#DejaVuSans-5d" transform="translate(293.457031 0)"/>
    </g>
    <!-- [33, 0]] -->
    <g transform="translate(1189.266912 475.219085) scale(0.207589 -0.207589)">
     <use xlink:href="#DejaVuSans-5b"/>
     <use xlink:href="#DejaVuSans-33" transform="translate(39.013672 0)"/>
     <use xlink:href="#DejaVuSans-33" transform="translate(102.636719 0)"/>
     <use xlink:href="#DejaVuSans-2c" transform="translate(166.259766 0)"/>
     <use xlink:href="#DejaVuSans-20" transform="translate(198.046875 0)"/>
     <use xlink:href="#DejaVuSans-30" transform="translate(229.833984 0)"/>
     <use xlink:href="#DejaVuSans-5d" transform="translate(293.457031 0)"/>
     <use xlink:href="#DejaVuSans-5d" transform="translate(332.470703 0)"/>
    </g>
   </g>
   <g id="patch_18">
    <path d="M 515.793697 180.450025 
Q 608.839584 136.076142 702.894621 91.220991 
" style="fill: none; stroke: #000000; stroke-linecap: round"/>
    <path d="M 525.075758 180.623133 
L 515.793697 180.450025 
L 521.501419 173.128241 
" style="fill: none; stroke: #000000; stroke-linecap: round"/>
   </g>
   <g id="text_9">
    <g id="patch_19">
     <path d="M 187.99405 331.066701 
L 523.90595 331.066701 
Q 530.133629 331.066701 530.133629 324.839023 
L 530.133629 188.520977 
Q 530.133629 182.293299 523.90595 182.293299 
L 187.99405 182.293299 
Q 181.766371 182.293299 181.766371 188.520977 
L 181.766371 324.839023 
Q 181.766371 331.066701 187.99405 331.066701 
z
" style="fill: #e99457; stroke: #000000; stroke-linejoin: miter"/>
    </g>
    <!-- Culmen Length (mm) &lt;= -0.746 -->
    <g transform="translate(187.99405 204.294519) scale(0.207589 -0.207589)">
     <use xlink:href="#DejaVuSans-43"/>
     <use xlink:href="#DejaVuSans-75" transform="translate(69.824219 0)"/>
     <use xlink:href="#DejaVuSans-6c" transform="translate(133.203125 0)"/>
     <use xlink:href="#DejaVuSans-6d" transform="translate(160.986328 0)"/>
     <use xlink:href="#DejaVuSans-65" transform="translate(258.398438 0)"/>
     <use xlink:href="#DejaVuSans-6e" transform="translate(319.921875 0)"/>
     <use xlink:href="#DejaVuSans-20" transform="translate(383.300781 0)"/>
     <use xlink:href="#DejaVuSans-4c" transform="translate(415.087891 0)"/>
     <use xlink:href="#DejaVuSans-65" transform="translate(469.050781 0)"/>
     <use xlink:href="#DejaVuSans-6e" transform="translate(530.574219 0)"/>
     <use xlink:href="#DejaVuSans-67" transform="translate(593.953125 0)"/>
     <use xlink:href="#DejaVuSans-74" transform="translate(657.429688 0)"/>
     <use xlink:href="#DejaVuSans-68" transform="translate(696.638672 0)"/>
     <use xlink:href="#DejaVuSans-20" transform="translate(760.017578 0)"/>
     <use xlink:href="#DejaVuSans-28" transform="translate(791.804688 0)"/>
     <use xlink:href="#DejaVuSans-6d" transform="translate(830.818359 0)"/>
     <use xlink:href="#DejaVuSans-6d" transform="translate(928.230469 0)"/>
     <use xlink:href="#DejaVuSans-29" transform="translate(1025.642578 0)"/>
     <use xlink:href="#DejaVuSans-20" transform="translate(1064.65625 0)"/>
     <use xlink:href="#DejaVuSans-3c" transform="translate(1096.443359 0)"/>
     <use xlink:href="#DejaVuSans-3d" transform="translate(1180.232422 0)"/>
     <use xlink:href="#DejaVuSans-20" transform="translate(1264.021484 0)"/>
     <use xlink:href="#DejaVuSans-2d" transform="translate(1295.808594 0)"/>
     <use xlink:href="#DejaVuSans-30" transform="translate(1331.892578 0)"/>
     <use xlink:href="#DejaVuSans-2e" transform="translate(1395.515625 0)"/>
     <use xlink:href="#DejaVuSans-37" transform="translate(1427.302734 0)"/>
     <use xlink:href="#DejaVuSans-34" transform="translate(1490.925781 0)"/>
     <use xlink:href="#DejaVuSans-36" transform="translate(1554.548828 0)"/>
    </g>
    <!-- entropy = 0.132 -->
    <g transform="translate(270.789739 227.539978) scale(0.207589 -0.207589)">
     <use xlink:href="#DejaVuSans-65"/>
     <use xlink:href="#DejaVuSans-6e" transform="translate(61.523438 0)"/>
     <use xlink:href="#DejaVuSans-74" transform="translate(124.902344 0)"/>
     <use xlink:href="#DejaVuSans-72" transform="translate(164.111328 0)"/>
     <use xlink:href="#DejaVuSans-6f" transform="translate(202.974609 0)"/>
     <use xlink:href="#DejaVuSans-70" transform="translate(264.15625 0)"/>
     <use xlink:href="#DejaVuSans-79" transform="translate(327.632812 0)"/>
     <use xlink:href="#DejaVuSans-20" transform="translate(386.8125 0)"/>
     <use xlink:href="#DejaVuSans-3d" transform="translate(418.599609 0)"/>
     <use xlink:href="#DejaVuSans-20" transform="translate(502.388672 0)"/>
     <use xlink:href="#DejaVuSans-30" transform="translate(534.175781 0)"/>
     <use xlink:href="#DejaVuSans-2e" transform="translate(597.798828 0)"/>
     <use xlink:href="#DejaVuSans-31" transform="translate(629.585938 0)"/>
     <use xlink:href="#DejaVuSans-33" transform="translate(693.208984 0)"/>
     <use xlink:href="#DejaVuSans-32" transform="translate(756.832031 0)"/>
    </g>
    <!-- samples = 42 -->
    <g transform="translate(284.302504 250.785437) scale(0.207589 -0.207589)">
     <use xlink:href="#DejaVuSans-73"/>
     <use xlink:href="#DejaVuSans-61" transform="translate(52.099609 0)"/>
     <use xlink:href="#DejaVuSans-6d" transform="translate(113.378906 0)"/>
     <use xlink:href="#DejaVuSans-70" transform="translate(210.791016 0)"/>
     <use xlink:href="#DejaVuSans-6c" transform="translate(274.267578 0)"/>
     <use xlink:href="#DejaVuSans-65" transform="translate(302.050781 0)"/>
     <use xlink:href="#DejaVuSans-73" transform="translate(363.574219 0)"/>
     <use xlink:href="#DejaVuSans-20" transform="translate(415.673828 0)"/>
     <use xlink:href="#DejaVuSans-3d" transform="translate(447.460938 0)"/>
     <use xlink:href="#DejaVuSans-20" transform="translate(531.25 0)"/>
     <use xlink:href="#DejaVuSans-34" transform="translate(563.037109 0)"/>
     <use xlink:href="#DejaVuSans-32" transform="translate(626.660156 0)"/>
    </g>
    <!-- value = [[63, 2] -->
    <g transform="translate(273.744643 274.030896) scale(0.207589 -0.207589)">
     <use xlink:href="#DejaVuSans-76"/>
     <use xlink:href="#DejaVuSans-61" transform="translate(59.179688 0)"/>
     <use xlink:href="#DejaVuSans-6c" transform="translate(120.458984 0)"/>
     <use xlink:href="#DejaVuSans-75" transform="translate(148.242188 0)"/>
     <use xlink:href="#DejaVuSans-65" transform="translate(211.621094 0)"/>
     <use xlink:href="#DejaVuSans-20" transform="translate(273.144531 0)"/>
     <use xlink:href="#DejaVuSans-3d" transform="translate(304.931641 0)"/>
     <use xlink:href="#DejaVuSans-20" transform="translate(388.720703 0)"/>
     <use xlink:href="#DejaVuSans-5b" transform="translate(420.507812 0)"/>
     <use xlink:href="#DejaVuSans-5b" transform="translate(459.521484 0)"/>
     <use xlink:href="#DejaVuSans-36" transform="translate(498.535156 0)"/>
     <use xlink:href="#DejaVuSans-33" transform="translate(562.158203 0)"/>
     <use xlink:href="#DejaVuSans-2c" transform="translate(625.78125 0)"/>
     <use xlink:href="#DejaVuSans-20" transform="translate(657.568359 0)"/>
     <use xlink:href="#DejaVuSans-32" transform="translate(689.355469 0)"/>
     <use xlink:href="#DejaVuSans-5d" transform="translate(752.978516 0)"/>
    </g>
    <!-- [65, 0] -->
    <g transform="translate(321.441525 297.276355) scale(0.207589 -0.207589)">
     <use xlink:href="#DejaVuSans-5b"/>
     <use xlink:href="#DejaVuSans-36" transform="translate(39.013672 0)"/>
     <use xlink:href="#DejaVuSans-35" transform="translate(102.636719 0)"/>
     <use xlink:href="#DejaVuSans-2c" transform="translate(166.259766 0)"/>
     <use xlink:href="#DejaVuSans-20" transform="translate(198.046875 0)"/>
     <use xlink:href="#DejaVuSans-30" transform="translate(229.833984 0)"/>
     <use xlink:href="#DejaVuSans-5d" transform="translate(293.457031 0)"/>
    </g>
    <!-- [2, 63]] -->
    <g transform="translate(317.391912 320.521814) scale(0.207589 -0.207589)">
     <use xlink:href="#DejaVuSans-5b"/>
     <use xlink:href="#DejaVuSans-32" transform="translate(39.013672 0)"/>
     <use xlink:href="#DejaVuSans-2c" transform="translate(102.636719 0)"/>
     <use xlink:href="#DejaVuSans-20" transform="translate(134.423828 0)"/>
     <use xlink:href="#DejaVuSans-36" transform="translate(166.210938 0)"/>
     <use xlink:href="#DejaVuSans-33" transform="translate(229.833984 0)"/>
     <use xlink:href="#DejaVuSans-5d" transform="translate(293.457031 0)"/>
     <use xlink:href="#DejaVuSans-5d" transform="translate(332.470703 0)"/>
    </g>
   </g>
   <g id="text_10">
    <!-- True   -->
    <g transform="translate(473.049819 173.52) scale(0.207589 -0.207589)">
     <defs>
      <path id="DejaVuSans-54" d="M -19 4666 
L 3928 4666 
L 3928 4134 
L 2272 4134 
L 2272 0 
L 1638 0 
L 1638 4134 
L -19 4134 
L -19 4666 
z
" transform="scale(0.015625)"/>
     </defs>
     <use xlink:href="#DejaVuSans-54"/>
     <use xlink:href="#DejaVuSans-72" transform="translate(46.333984 0)"/>
     <use xlink:href="#DejaVuSans-75" transform="translate(87.447266 0)"/>
     <use xlink:href="#DejaVuSans-65" transform="translate(150.826172 0)"/>
     <use xlink:href="#DejaVuSans-20" transform="translate(212.349609 0)"/>
     <use xlink:href="#DejaVuSans-20" transform="translate(244.136719 0)"/>
    </g>
   </g>
   <g id="patch_20">
    <path d="M 901.998695 184.452384 
Q 804.757165 138.077585 706.506485 91.221518 
" style="fill: none; stroke: #000000; stroke-linecap: round"/>
    <path d="M 896.290973 177.1306 
L 901.998695 184.452384 
L 892.716634 184.625492 
" style="fill: none; stroke: #000000; stroke-linecap: round"/>
   </g>
   <g id="text_11">
    <g id="patch_21">
     <path d="M 911.050237 331.066701 
L 1195.849763 331.066701 
Q 1202.077441 331.066701 1202.077441 324.839023 
L 1202.077441 188.520977 
Q 1202.077441 182.293299 1195.849763 182.293299 
L 911.050237 182.293299 
Q 904.822559 182.293299 904.822559 188.520977 
L 904.822559 324.839023 
Q 904.822559 331.066701 911.050237 331.066701 
z
" style="fill: #fbece1; stroke: #000000; stroke-linejoin: miter"/>
    </g>
    <!-- Delta 13 C (o/oo) &lt;= 0.991 -->
    <g transform="translate(911.050237 204.294519) scale(0.207589 -0.207589)">
     <defs>
      <path id="DejaVuSans-2f" d="M 1625 4666 
L 2156 4666 
L 531 -594 
L 0 -594 
L 1625 4666 
z
" transform="scale(0.015625)"/>
     </defs>
     <use xlink:href="#DejaVuSans-44"/>
     <use xlink:href="#DejaVuSans-65" transform="translate(77.001953 0)"/>
     <use xlink:href="#DejaVuSans-6c" transform="translate(138.525391 0)"/>
     <use xlink:href="#DejaVuSans-74" transform="translate(166.308594 0)"/>
     <use xlink:href="#DejaVuSans-61" transform="translate(205.517578 0)"/>
     <use xlink:href="#DejaVuSans-20" transform="translate(266.796875 0)"/>
     <use xlink:href="#DejaVuSans-31" transform="translate(298.583984 0)"/>
     <use xlink:href="#DejaVuSans-33" transform="translate(362.207031 0)"/>
     <use xlink:href="#DejaVuSans-20" transform="translate(425.830078 0)"/>
     <use xlink:href="#DejaVuSans-43" transform="translate(457.617188 0)"/>
     <use xlink:href="#DejaVuSans-20" transform="translate(527.441406 0)"/>
     <use xlink:href="#DejaVuSans-28" transform="translate(559.228516 0)"/>
     <use xlink:href="#DejaVuSans-6f" transform="translate(598.242188 0)"/>
     <use xlink:href="#DejaVuSans-2f" transform="translate(659.423828 0)"/>
     <use xlink:href="#DejaVuSans-6f" transform="translate(693.115234 0)"/>
     <use xlink:href="#DejaVuSans-6f" transform="translate(754.296875 0)"/>
     <use xlink:href="#DejaVuSans-29" transform="translate(815.478516 0)"/>
     <use xlink:href="#DejaVuSans-20" transform="translate(854.492188 0)"/>
     <use xlink:href="#DejaVuSans-3c" transform="translate(886.279297 0)"/>
     <use xlink:href="#DejaVuSans-3d" transform="translate(970.068359 0)"/>
     <use xlink:href="#DejaVuSans-20" transform="translate(1053.857422 0)"/>
     <use xlink:href="#DejaVuSans-30" transform="translate(1085.644531 0)"/>
     <use xlink:href="#DejaVuSans-2e" transform="translate(1149.267578 0)"/>
     <use xlink:href="#DejaVuSans-39" transform="translate(1181.054688 0)"/>
     <use xlink:href="#DejaVuSans-39" transform="translate(1244.677734 0)"/>
     <use xlink:href="#DejaVuSans-31" transform="translate(1308.300781 0)"/>
    </g>
    <!-- entropy = 0.751 -->
    <g transform="translate(968.289739 227.539978) scale(0.207589 -0.207589)">
     <use xlink:href="#DejaVuSans-65"/>
     <use xlink:href="#DejaVuSans-6e" transform="translate(61.523438 0)"/>
     <use xlink:href="#DejaVuSans-74" transform="translate(124.902344 0)"/>
     <use xlink:href="#DejaVuSans-72" transform="translate(164.111328 0)"/>
     <use xlink:href="#DejaVuSans-6f" transform="translate(202.974609 0)"/>
     <use xlink:href="#DejaVuSans-70" transform="translate(264.15625 0)"/>
     <use xlink:href="#DejaVuSans-79" transform="translate(327.632812 0)"/>
     <use xlink:href="#DejaVuSans-20" transform="translate(386.8125 0)"/>
     <use xlink:href="#DejaVuSans-3d" transform="translate(418.599609 0)"/>
     <use xlink:href="#DejaVuSans-20" transform="translate(502.388672 0)"/>
     <use xlink:href="#DejaVuSans-30" transform="translate(534.175781 0)"/>
     <use xlink:href="#DejaVuSans-2e" transform="translate(597.798828 0)"/>
     <use xlink:href="#DejaVuSans-37" transform="translate(629.585938 0)"/>
     <use xlink:href="#DejaVuSans-35" transform="translate(693.208984 0)"/>
     <use xlink:href="#DejaVuSans-31" transform="translate(756.832031 0)"/>
    </g>
    <!-- samples = 71 -->
    <g transform="translate(981.802504 250.785437) scale(0.207589 -0.207589)">
     <use xlink:href="#DejaVuSans-73"/>
     <use xlink:href="#DejaVuSans-61" transform="translate(52.099609 0)"/>
     <use xlink:href="#DejaVuSans-6d" transform="translate(113.378906 0)"/>
     <use xlink:href="#DejaVuSans-70" transform="translate(210.791016 0)"/>
     <use xlink:href="#DejaVuSans-6c" transform="translate(274.267578 0)"/>
     <use xlink:href="#DejaVuSans-65" transform="translate(302.050781 0)"/>
     <use xlink:href="#DejaVuSans-73" transform="translate(363.574219 0)"/>
     <use xlink:href="#DejaVuSans-20" transform="translate(415.673828 0)"/>
     <use xlink:href="#DejaVuSans-3d" transform="translate(447.460938 0)"/>
     <use xlink:href="#DejaVuSans-20" transform="translate(531.25 0)"/>
     <use xlink:href="#DejaVuSans-37" transform="translate(563.037109 0)"/>
     <use xlink:href="#DejaVuSans-31" transform="translate(626.660156 0)"/>
    </g>
    <!-- value = [[41, 64] -->
    <g transform="translate(964.640709 274.030896) scale(0.207589 -0.207589)">
     <use xlink:href="#DejaVuSans-76"/>
     <use xlink:href="#DejaVuSans-61" transform="translate(59.179688 0)"/>
     <use xlink:href="#DejaVuSans-6c" transform="translate(120.458984 0)"/>
     <use xlink:href="#DejaVuSans-75" transform="translate(148.242188 0)"/>
     <use xlink:href="#DejaVuSans-65" transform="translate(211.621094 0)"/>
     <use xlink:href="#DejaVuSans-20" transform="translate(273.144531 0)"/>
     <use xlink:href="#DejaVuSans-3d" transform="translate(304.931641 0)"/>
     <use xlink:href="#DejaVuSans-20" transform="translate(388.720703 0)"/>
     <use xlink:href="#DejaVuSans-5b" transform="translate(420.507812 0)"/>
     <use xlink:href="#DejaVuSans-5b" transform="translate(459.521484 0)"/>
     <use xlink:href="#DejaVuSans-34" transform="translate(498.535156 0)"/>
     <use xlink:href="#DejaVuSans-31" transform="translate(562.158203 0)"/>
     <use xlink:href="#DejaVuSans-2c" transform="translate(625.78125 0)"/>
     <use xlink:href="#DejaVuSans-20" transform="translate(657.568359 0)"/>
     <use xlink:href="#DejaVuSans-36" transform="translate(689.355469 0)"/>
     <use xlink:href="#DejaVuSans-34" transform="translate(752.978516 0)"/>
     <use xlink:href="#DejaVuSans-5d" transform="translate(816.601562 0)"/>
    </g>
    <!-- [72, 33] -->
    <g transform="translate(1012.337591 297.276355) scale(0.207589 -0.207589)">
     <use xlink:href="#DejaVuSans-5b"/>
     <use xlink:href="#DejaVuSans-37" transform="translate(39.013672 0)"/>
     <use xlink:href="#DejaVuSans-32" transform="translate(102.636719 0)"/>
     <use xlink:href="#DejaVuSans-2c" transform="translate(166.259766 0)"/>
     <use xlink:href="#DejaVuSans-20" transform="translate(198.046875 0)"/>
     <use xlink:href="#DejaVuSans-33" transform="translate(229.833984 0)"/>
     <use xlink:href="#DejaVuSans-33" transform="translate(293.457031 0)"/>
     <use xlink:href="#DejaVuSans-5d" transform="translate(357.080078 0)"/>
    </g>
    <!-- [97, 8]] -->
    <g transform="translate(1014.891912 320.521814) scale(0.207589 -0.207589)">
     <use xlink:href="#DejaVuSans-5b"/>
     <use xlink:href="#DejaVuSans-39" transform="translate(39.013672 0)"/>
     <use xlink:href="#DejaVuSans-37" transform="translate(102.636719 0)"/>
     <use xlink:href="#DejaVuSans-2c" transform="translate(166.259766 0)"/>
     <use xlink:href="#DejaVuSans-20" transform="translate(198.046875 0)"/>
     <use xlink:href="#DejaVuSans-38" transform="translate(229.833984 0)"/>
     <use xlink:href="#DejaVuSans-5d" transform="translate(293.457031 0)"/>
     <use xlink:href="#DejaVuSans-5d" transform="translate(332.470703 0)"/>
    </g>
   </g>
   <g id="text_12">
    <!--   False -->
    <g transform="translate(879.075 173.52) scale(0.207589 -0.207589)">
     <defs>
      <path id="DejaVuSans-46" d="M 628 4666 
L 3309 4666 
L 3309 4134 
L 1259 4134 
L 1259 2759 
L 3109 2759 
L 3109 2228 
L 1259 2228 
L 1259 0 
L 628 0 
L 628 4666 
z
" transform="scale(0.015625)"/>
     </defs>
     <use xlink:href="#DejaVuSans-20"/>
     <use xlink:href="#DejaVuSans-20" transform="translate(31.787109 0)"/>
     <use xlink:href="#DejaVuSans-46" transform="translate(63.574219 0)"/>
     <use xlink:href="#DejaVuSans-61" transform="translate(111.96875 0)"/>
     <use xlink:href="#DejaVuSans-6c" transform="translate(173.248047 0)"/>
     <use xlink:href="#DejaVuSans-73" transform="translate(201.03125 0)"/>
     <use xlink:href="#DejaVuSans-65" transform="translate(253.130859 0)"/>
    </g>
   </g>
   <g id="patch_22">
    <path d="M 704.7 90.36 
Q 704.7 90.36 704.7 90.36 
" style="fill: none; stroke: #000000; stroke-linecap: round"/>
   </g>
   <g id="text_13">
    <g id="patch_23">
     <path d="M 540.931515 164.746701 
L 868.468485 164.746701 
Q 874.696164 164.746701 874.696164 158.519023 
L 874.696164 22.200977 
Q 874.696164 15.973299 868.468485 15.973299 
L 540.931515 15.973299 
Q 534.703836 15.973299 534.703836 22.200977 
L 534.703836 158.519023 
Q 534.703836 164.746701 540.931515 164.746701 
z
" style="fill: #ffffff; stroke: #000000; stroke-linejoin: miter"/>
    </g>
    <!-- Culmen Depth (mm) &lt;= -0.396 -->
    <g transform="translate(540.931515 37.974519) scale(0.207589 -0.207589)">
     <use xlink:href="#DejaVuSans-43"/>
     <use xlink:href="#DejaVuSans-75" transform="translate(69.824219 0)"/>
     <use xlink:href="#DejaVuSans-6c" transform="translate(133.203125 0)"/>
     <use xlink:href="#DejaVuSans-6d" transform="translate(160.986328 0)"/>
     <use xlink:href="#DejaVuSans-65" transform="translate(258.398438 0)"/>
     <use xlink:href="#DejaVuSans-6e" transform="translate(319.921875 0)"/>
     <use xlink:href="#DejaVuSans-20" transform="translate(383.300781 0)"/>
     <use xlink:href="#DejaVuSans-44" transform="translate(415.087891 0)"/>
     <use xlink:href="#DejaVuSans-65" transform="translate(492.089844 0)"/>
     <use xlink:href="#DejaVuSans-70" transform="translate(553.613281 0)"/>
     <use xlink:href="#DejaVuSans-74" transform="translate(617.089844 0)"/>
     <use xlink:href="#DejaVuSans-68" transform="translate(656.298828 0)"/>
     <use xlink:href="#DejaVuSans-20" transform="translate(719.677734 0)"/>
     <use xlink:href="#DejaVuSans-28" transform="translate(751.464844 0)"/>
     <use xlink:href="#DejaVuSans-6d" transform="translate(790.478516 0)"/>
     <use xlink:href="#DejaVuSans-6d" transform="translate(887.890625 0)"/>
     <use xlink:href="#DejaVuSans-29" transform="translate(985.302734 0)"/>
     <use xlink:href="#DejaVuSans-20" transform="translate(1024.316406 0)"/>
     <use xlink:href="#DejaVuSans-3c" transform="translate(1056.103516 0)"/>
     <use xlink:href="#DejaVuSans-3d" transform="translate(1139.892578 0)"/>
     <use xlink:href="#DejaVuSans-20" transform="translate(1223.681641 0)"/>
     <use xlink:href="#DejaVuSans-2d" transform="translate(1255.46875 0)"/>
     <use xlink:href="#DejaVuSans-30" transform="translate(1291.552734 0)"/>
     <use xlink:href="#DejaVuSans-2e" transform="translate(1355.175781 0)"/>
     <use xlink:href="#DejaVuSans-33" transform="translate(1386.962891 0)"/>
     <use xlink:href="#DejaVuSans-39" transform="translate(1450.585938 0)"/>
     <use xlink:href="#DejaVuSans-36" transform="translate(1514.208984 0)"/>
    </g>
    <!-- entropy = 0.885 -->
    <g transform="translate(619.539739 61.219978) scale(0.207589 -0.207589)">
     <use xlink:href="#DejaVuSans-65"/>
     <use xlink:href="#DejaVuSans-6e" transform="translate(61.523438 0)"/>
     <use xlink:href="#DejaVuSans-74" transform="translate(124.902344 0)"/>
     <use xlink:href="#DejaVuSans-72" transform="translate(164.111328 0)"/>
     <use xlink:href="#DejaVuSans-6f" transform="translate(202.974609 0)"/>
     <use xlink:href="#DejaVuSans-70" transform="translate(264.15625 0)"/>
     <use xlink:href="#DejaVuSans-79" transform="translate(327.632812 0)"/>
     <use xlink:href="#DejaVuSans-20" transform="translate(386.8125 0)"/>
     <use xlink:href="#DejaVuSans-3d" transform="translate(418.599609 0)"/>
     <use xlink:href="#DejaVuSans-20" transform="translate(502.388672 0)"/>
     <use xlink:href="#DejaVuSans-30" transform="translate(534.175781 0)"/>
     <use xlink:href="#DejaVuSans-2e" transform="translate(597.798828 0)"/>
     <use xlink:href="#DejaVuSans-38" transform="translate(629.585938 0)"/>
     <use xlink:href="#DejaVuSans-38" transform="translate(693.208984 0)"/>
     <use xlink:href="#DejaVuSans-35" transform="translate(756.832031 0)"/>
    </g>
    <!-- samples = 113 -->
    <g transform="translate(626.44857 84.465437) scale(0.207589 -0.207589)">
     <use xlink:href="#DejaVuSans-73"/>
     <use xlink:href="#DejaVuSans-61" transform="translate(52.099609 0)"/>
     <use xlink:href="#DejaVuSans-6d" transform="translate(113.378906 0)"/>
     <use xlink:href="#DejaVuSans-70" transform="translate(210.791016 0)"/>
     <use xlink:href="#DejaVuSans-6c" transform="translate(274.267578 0)"/>
     <use xlink:href="#DejaVuSans-65" transform="translate(302.050781 0)"/>
     <use xlink:href="#DejaVuSans-73" transform="translate(363.574219 0)"/>
     <use xlink:href="#DejaVuSans-20" transform="translate(415.673828 0)"/>
     <use xlink:href="#DejaVuSans-3d" transform="translate(447.460938 0)"/>
     <use xlink:href="#DejaVuSans-20" transform="translate(531.25 0)"/>
     <use xlink:href="#DejaVuSans-31" transform="translate(563.037109 0)"/>
     <use xlink:href="#DejaVuSans-31" transform="translate(626.660156 0)"/>
     <use xlink:href="#DejaVuSans-33" transform="translate(690.283203 0)"/>
    </g>
    <!-- value = [[104.0, 66.0] -->
    <g transform="translate(589.481459 107.710896) scale(0.207589 -0.207589)">
     <use xlink:href="#DejaVuSans-76"/>
     <use xlink:href="#DejaVuSans-61" transform="translate(59.179688 0)"/>
     <use xlink:href="#DejaVuSans-6c" transform="translate(120.458984 0)"/>
     <use xlink:href="#DejaVuSans-75" transform="translate(148.242188 0)"/>
     <use xlink:href="#DejaVuSans-65" transform="translate(211.621094 0)"/>
     <use xlink:href="#DejaVuSans-20" transform="translate(273.144531 0)"/>
     <use xlink:href="#DejaVuSans-3d" transform="translate(304.931641 0)"/>
     <use xlink:href="#DejaVuSans-20" transform="translate(388.720703 0)"/>
     <use xlink:href="#DejaVuSans-5b" transform="translate(420.507812 0)"/>
     <use xlink:href="#DejaVuSans-5b" transform="translate(459.521484 0)"/>
     <use xlink:href="#DejaVuSans-31" transform="translate(498.535156 0)"/>
     <use xlink:href="#DejaVuSans-30" transform="translate(562.158203 0)"/>
     <use xlink:href="#DejaVuSans-34" transform="translate(625.78125 0)"/>
     <use xlink:href="#DejaVuSans-2e" transform="translate(689.404297 0)"/>
     <use xlink:href="#DejaVuSans-30" transform="translate(721.191406 0)"/>
     <use xlink:href="#DejaVuSans-2c" transform="translate(784.814453 0)"/>
     <use xlink:href="#DejaVuSans-20" transform="translate(816.601562 0)"/>
     <use xlink:href="#DejaVuSans-36" transform="translate(848.388672 0)"/>
     <use xlink:href="#DejaVuSans-36" transform="translate(912.011719 0)"/>
     <use xlink:href="#DejaVuSans-2e" transform="translate(975.634766 0)"/>
     <use xlink:href="#DejaVuSans-30" transform="translate(1007.421875 0)"/>
     <use xlink:href="#DejaVuSans-5d" transform="translate(1071.044922 0)"/>
    </g>
    <!-- [137.0, 33.0] -->
    <g transform="translate(637.178341 130.956355) scale(0.207589 -0.207589)">
     <use xlink:href="#DejaVuSans-5b"/>
     <use xlink:href="#DejaVuSans-31" transform="translate(39.013672 0)"/>
     <use xlink:href="#DejaVuSans-33" transform="translate(102.636719 0)"/>
     <use xlink:href="#DejaVuSans-37" transform="translate(166.259766 0)"/>
     <use xlink:href="#DejaVuSans-2e" transform="translate(229.882812 0)"/>
     <use xlink:href="#DejaVuSans-30" transform="translate(261.669922 0)"/>
     <use xlink:href="#DejaVuSans-2c" transform="translate(325.292969 0)"/>
     <use xlink:href="#DejaVuSans-20" transform="translate(357.080078 0)"/>
     <use xlink:href="#DejaVuSans-33" transform="translate(388.867188 0)"/>
     <use xlink:href="#DejaVuSans-33" transform="translate(452.490234 0)"/>
     <use xlink:href="#DejaVuSans-2e" transform="translate(516.113281 0)"/>
     <use xlink:href="#DejaVuSans-30" transform="translate(547.900391 0)"/>
     <use xlink:href="#DejaVuSans-5d" transform="translate(611.523438 0)"/>
    </g>
    <!-- [99.0, 71.0]] -->
    <g transform="translate(639.732663 154.201814) scale(0.207589 -0.207589)">
     <use xlink:href="#DejaVuSans-5b"/>
     <use xlink:href="#DejaVuSans-39" transform="translate(39.013672 0)"/>
     <use xlink:href="#DejaVuSans-39" transform="translate(102.636719 0)"/>
     <use xlink:href="#DejaVuSans-2e" transform="translate(166.259766 0)"/>
     <use xlink:href="#DejaVuSans-30" transform="translate(198.046875 0)"/>
     <use xlink:href="#DejaVuSans-2c" transform="translate(261.669922 0)"/>
     <use xlink:href="#DejaVuSans-20" transform="translate(293.457031 0)"/>
     <use xlink:href="#DejaVuSans-37" transform="translate(325.244141 0)"/>
     <use xlink:href="#DejaVuSans-31" transform="translate(388.867188 0)"/>
     <use xlink:href="#DejaVuSans-2e" transform="translate(452.490234 0)"/>
     <use xlink:href="#DejaVuSans-30" transform="translate(484.277344 0)"/>
     <use xlink:href="#DejaVuSans-5d" transform="translate(547.900391 0)"/>
     <use xlink:href="#DejaVuSans-5d" transform="translate(586.914062 0)"/>
    </g>
   </g>
  </g>
 </g>
</svg>
